<?xml version="1.0" encoding="UTF-8" standalone="no"?>
<!DOCTYPE svg PUBLIC "-//W3C//DTD SVG 1.1//EN"
 "http://www.w3.org/Graphics/SVG/1.1/DTD/svg11.dtd">
<!-- Generated by graphviz version 2.43.0 (0)
 -->
<!-- Title: %3 Pages: 1 -->
<svg width="170pt" height="648pt"
 viewBox="0.00 0.00 169.94 648.00" xmlns="http://www.w3.org/2000/svg" xmlns:xlink="http://www.w3.org/1999/xlink">
<g id="graph0" class="graph" transform="scale(0.93 0.93) rotate(0) translate(4 690)">
<title>%3</title>
<polygon fill="white" stroke="transparent" points="-4,4 -4,-690 178,-690 178,4 -4,4"/>
<g id="clust1" class="cluster">
<title>cluster_final_model</title>
<polygon fill="lightblue" stroke="lightblue" points="8,-8 8,-678 166,-678 166,-8 8,-8"/>
<text text-anchor="middle" x="87" y="-662.8" font-family="Times,serif" font-size="14.00">Emotion Detection model</text>
</g>
<!-- input -->
<g id="node1" class="node">
<title>input</title>
<polygon fill="none" stroke="black" points="119.5,-647 54.5,-647 54.5,-606 119.5,-606 119.5,-647"/>
<text text-anchor="middle" x="87" y="-623.4" font-family="Times,serif" font-size="12.00">INPUT</text>
</g>
<!-- zeropad -->
<g id="node2" class="node">
<title>zeropad</title>
<polygon fill="none" stroke="black" points="133,-588 41,-588 41,-547 133,-547 133,-588"/>
<text text-anchor="middle" x="87" y="-564.4" font-family="Times,serif" font-size="12.00">Zero padding</text>
</g>
<!-- input&#45;&gt;zeropad -->
<g id="edge1" class="edge">
<title>input&#45;&gt;zeropad</title>
<path fill="none" stroke="black" d="M87,-605.88C87,-603.49 87,-601.01 87,-598.51"/>
<polygon fill="black" stroke="black" points="90.5,-598.35 87,-588.35 83.5,-598.35 90.5,-598.35"/>
</g>
<!-- conv2d -->
<g id="node3" class="node">
<title>conv2d</title>
<polygon fill="none" stroke="black" points="122,-529 52,-529 52,-488 122,-488 122,-529"/>
<text text-anchor="middle" x="87" y="-505.4" font-family="Times,serif" font-size="12.00">Conv2D</text>
</g>
<!-- zeropad&#45;&gt;conv2d -->
<g id="edge2" class="edge">
<title>zeropad&#45;&gt;conv2d</title>
<path fill="none" stroke="black" d="M87,-546.88C87,-544.49 87,-542.01 87,-539.51"/>
<polygon fill="black" stroke="black" points="90.5,-539.35 87,-529.35 83.5,-539.35 90.5,-539.35"/>
</g>
<!-- bn_relu -->
<g id="node4" class="node">
<title>bn_relu</title>
<polygon fill="none" stroke="black" points="147,-470 27,-470 27,-429 147,-429 147,-470"/>
<text text-anchor="middle" x="87" y="-446.4" font-family="Times,serif" font-size="12.00">BatchNorm, ReLU</text>
</g>
<!-- conv2d&#45;&gt;bn_relu -->
<g id="edge3" class="edge">
<title>conv2d&#45;&gt;bn_relu</title>
<path fill="none" stroke="black" d="M87,-487.88C87,-485.49 87,-483.01 87,-480.51"/>
<polygon fill="black" stroke="black" points="90.5,-480.35 87,-470.35 83.5,-480.35 90.5,-480.35"/>
</g>
<!-- pool -->
<g id="node5" class="node">
<title>pool</title>
<polygon fill="none" stroke="black" points="130.5,-411 43.5,-411 43.5,-370 130.5,-370 130.5,-411"/>
<text text-anchor="middle" x="87" y="-387.4" font-family="Times,serif" font-size="12.00">MaxPool2D</text>
</g>
<!-- bn_relu&#45;&gt;pool -->
<g id="edge4" class="edge">
<title>bn_relu&#45;&gt;pool</title>
<path fill="none" stroke="black" d="M87,-428.88C87,-426.49 87,-424.01 87,-421.51"/>
<polygon fill="black" stroke="black" points="90.5,-421.35 87,-411.35 83.5,-421.35 90.5,-421.35"/>
</g>
<!-- Res1 -->
<g id="node6" class="node">
<title>Res1</title>
<polygon fill="lightgray" stroke="black" points="125.5,-352 48.5,-352 48.5,-311 125.5,-311 125.5,-352"/>
<text text-anchor="middle" x="87" y="-328.4" font-family="Times,serif" font-size="12.00">Res&#45;block</text>
</g>
<!-- pool&#45;&gt;Res1 -->
<g id="edge5" class="edge">
<title>pool&#45;&gt;Res1</title>
<path fill="none" stroke="black" d="M87,-369.88C87,-367.49 87,-365.01 87,-362.51"/>
<polygon fill="black" stroke="black" points="90.5,-362.35 87,-352.35 83.5,-362.35 90.5,-362.35"/>
</g>
<!-- Res2 -->
<g id="node7" class="node">
<title>Res2</title>
<polygon fill="lightgray" stroke="black" points="125.5,-293 48.5,-293 48.5,-252 125.5,-252 125.5,-293"/>
<text text-anchor="middle" x="87" y="-269.4" font-family="Times,serif" font-size="12.00">Res&#45;block</text>
</g>
<!-- Res1&#45;&gt;Res2 -->
<g id="edge6" class="edge">
<title>Res1&#45;&gt;Res2</title>
<path fill="none" stroke="black" d="M87,-310.88C87,-308.49 87,-306.01 87,-303.51"/>
<polygon fill="black" stroke="black" points="90.5,-303.35 87,-293.35 83.5,-303.35 90.5,-303.35"/>
</g>
<!-- Avgpool -->
<g id="node8" class="node">
<title>Avgpool</title>
<polygon fill="none" stroke="black" points="146.5,-234 27.5,-234 27.5,-193 146.5,-193 146.5,-234"/>
<text text-anchor="middle" x="87" y="-210.4" font-family="Times,serif" font-size="12.00">AveragePooling2D</text>
</g>
<!-- Res2&#45;&gt;Avgpool -->
<g id="edge7" class="edge">
<title>Res2&#45;&gt;Avgpool</title>
<path fill="none" stroke="black" d="M87,-251.88C87,-249.49 87,-247.01 87,-244.51"/>
<polygon fill="black" stroke="black" points="90.5,-244.35 87,-234.35 83.5,-244.35 90.5,-244.35"/>
</g>
<!-- flatten -->
<g id="node9" class="node">
<title>flatten</title>
<polygon fill="none" stroke="black" points="121,-175 53,-175 53,-134 121,-134 121,-175"/>
<text text-anchor="middle" x="87" y="-151.4" font-family="Times,serif" font-size="12.00">Flatten()</text>
</g>
<!-- Avgpool&#45;&gt;flatten -->
<g id="edge8" class="edge">
<title>Avgpool&#45;&gt;flatten</title>
<path fill="none" stroke="black" d="M87,-192.88C87,-190.49 87,-188.01 87,-185.51"/>
<polygon fill="black" stroke="black" points="90.5,-185.35 87,-175.35 83.5,-185.35 90.5,-185.35"/>
</g>
<!-- dense1 -->
<g id="node10" class="node">
<title>dense1</title>
<polygon fill="none" stroke="black" points="157,-116 17,-116 17,-75 157,-75 157,-116"/>
<text text-anchor="middle" x="87" y="-92.4" font-family="Times,serif" font-size="12.00">Dense, ReLU, Dropout</text>
</g>
<!-- flatten&#45;&gt;dense1 -->
<g id="edge9" class="edge">
<title>flatten&#45;&gt;dense1</title>
<path fill="none" stroke="black" d="M87,-133.88C87,-131.49 87,-129.01 87,-126.51"/>
<polygon fill="black" stroke="black" points="90.5,-126.35 87,-116.35 83.5,-126.35 90.5,-126.35"/>
</g>
<!-- output -->
<g id="node11" class="node">
<title>output</title>
<polygon fill="none" stroke="black" points="125.5,-57 48.5,-57 48.5,-16 125.5,-16 125.5,-57"/>
<text text-anchor="middle" x="87" y="-33.4" font-family="Times,serif" font-size="12.00">OUTPUT</text>
</g>
<!-- dense1&#45;&gt;output -->
<g id="edge10" class="edge">
<title>dense1&#45;&gt;output</title>
<path fill="none" stroke="black" d="M87,-74.88C87,-72.49 87,-70.01 87,-67.51"/>
<polygon fill="black" stroke="black" points="90.5,-67.35 87,-57.35 83.5,-67.35 90.5,-67.35"/>
</g>
</g>
</svg>
