<?xml version="1.0" encoding="UTF-8" standalone="no"?>
<!DOCTYPE svg PUBLIC "-//W3C//DTD SVG 1.1//EN"
 "http://www.w3.org/Graphics/SVG/1.1/DTD/svg11.dtd">
<!-- Generated by graphviz version 2.43.0 (0)
 -->
<!-- Title: %3 Pages: 1 -->
<svg width="252pt" height="532pt"
 viewBox="0.00 0.00 252.00 532.43" xmlns="http://www.w3.org/2000/svg" xmlns:xlink="http://www.w3.org/1999/xlink">
<g id="graph0" class="graph" transform="scale(0.77 0.77) rotate(0) translate(4 689)">
<title>%3</title>
<polygon fill="white" stroke="transparent" points="-4,4 -4,-689 324,-689 324,4 -4,4"/>
<g id="clust1" class="cluster">
<title>cluster_final_model</title>
<polygon fill="lightblue" stroke="lightblue" points="8,-8 8,-677 168,-677 168,-8 8,-8"/>
<text text-anchor="middle" x="88" y="-661.8" font-family="Times,serif" font-size="14.00">FINAL MODEL</text>
</g>
<g id="clust2" class="cluster">
<title>cluster_resblock</title>
<polygon fill="lightgrey" stroke="lightgrey" points="176,-494 176,-677 312,-677 312,-494 176,-494"/>
<text text-anchor="middle" x="244" y="-661.8" font-family="Times,serif" font-size="14.00">RES&#45;BLOCK</text>
</g>
<!-- input -->
<g id="node1" class="node">
<title>input</title>
<polygon fill="none" stroke="black" points="116,-646 60,-646 60,-610 116,-610 116,-646"/>
<text text-anchor="middle" x="88" y="-624.3" font-family="Times,serif" font-size="14.00">INPUT</text>
</g>
<!-- zeropad -->
<g id="node2" class="node">
<title>zeropad</title>
<polygon fill="none" stroke="black" points="132.5,-592 43.5,-592 43.5,-556 132.5,-556 132.5,-592"/>
<text text-anchor="middle" x="88" y="-570.3" font-family="Times,serif" font-size="14.00">Zero padding</text>
</g>
<!-- input&#45;&gt;zeropad -->
<g id="edge1" class="edge">
<title>input&#45;&gt;zeropad</title>
<path fill="none" stroke="black" d="M88,-609.97C88,-607.57 88,-605.06 88,-602.52"/>
<polygon fill="black" stroke="black" points="91.5,-602.24 88,-592.24 84.5,-602.24 91.5,-602.24"/>
</g>
<!-- conv2d -->
<g id="node3" class="node">
<title>conv2d</title>
<polygon fill="none" stroke="black" points="119,-538 57,-538 57,-502 119,-502 119,-538"/>
<text text-anchor="middle" x="88" y="-516.3" font-family="Times,serif" font-size="14.00">Conv2D</text>
</g>
<!-- zeropad&#45;&gt;conv2d -->
<g id="edge2" class="edge">
<title>zeropad&#45;&gt;conv2d</title>
<path fill="none" stroke="black" d="M88,-555.97C88,-553.57 88,-551.06 88,-548.52"/>
<polygon fill="black" stroke="black" points="91.5,-548.24 88,-538.24 84.5,-548.24 91.5,-548.24"/>
</g>
<!-- bn_relu -->
<g id="node4" class="node">
<title>bn_relu</title>
<polygon fill="none" stroke="black" points="148.5,-484 27.5,-484 27.5,-448 148.5,-448 148.5,-484"/>
<text text-anchor="middle" x="88" y="-462.3" font-family="Times,serif" font-size="14.00">BatchNorm, ReLU</text>
</g>
<!-- conv2d&#45;&gt;bn_relu -->
<g id="edge3" class="edge">
<title>conv2d&#45;&gt;bn_relu</title>
<path fill="none" stroke="black" d="M88,-501.97C88,-499.57 88,-497.06 88,-494.52"/>
<polygon fill="black" stroke="black" points="91.5,-494.24 88,-484.24 84.5,-494.24 91.5,-494.24"/>
</g>
<!-- pool -->
<g id="node5" class="node">
<title>pool</title>
<polygon fill="none" stroke="black" points="129.5,-430 46.5,-430 46.5,-394 129.5,-394 129.5,-430"/>
<text text-anchor="middle" x="88" y="-408.3" font-family="Times,serif" font-size="14.00">MaxPool2D</text>
</g>
<!-- bn_relu&#45;&gt;pool -->
<g id="edge4" class="edge">
<title>bn_relu&#45;&gt;pool</title>
<path fill="none" stroke="black" d="M88,-447.97C88,-445.57 88,-443.06 88,-440.52"/>
<polygon fill="black" stroke="black" points="91.5,-440.24 88,-430.24 84.5,-440.24 91.5,-440.24"/>
</g>
<!-- Res1 -->
<g id="node6" class="node">
<title>Res1</title>
<polygon fill="lightgray" stroke="black" points="123.5,-376 52.5,-376 52.5,-340 123.5,-340 123.5,-376"/>
<text text-anchor="middle" x="88" y="-354.3" font-family="Times,serif" font-size="14.00">Res&#45;block</text>
</g>
<!-- pool&#45;&gt;Res1 -->
<g id="edge5" class="edge">
<title>pool&#45;&gt;Res1</title>
<path fill="none" stroke="black" d="M88,-393.97C88,-391.57 88,-389.06 88,-386.52"/>
<polygon fill="black" stroke="black" points="91.5,-386.24 88,-376.24 84.5,-386.24 91.5,-386.24"/>
</g>
<!-- Res2 -->
<g id="node7" class="node">
<title>Res2</title>
<polygon fill="lightgray" stroke="black" points="123.5,-322 52.5,-322 52.5,-286 123.5,-286 123.5,-322"/>
<text text-anchor="middle" x="88" y="-300.3" font-family="Times,serif" font-size="14.00">Res&#45;block</text>
</g>
<!-- Res1&#45;&gt;Res2 -->
<g id="edge6" class="edge">
<title>Res1&#45;&gt;Res2</title>
<path fill="none" stroke="black" d="M88,-339.97C88,-337.57 88,-335.06 88,-332.52"/>
<polygon fill="black" stroke="black" points="91.5,-332.24 88,-322.24 84.5,-332.24 91.5,-332.24"/>
</g>
<!-- Avgpool -->
<g id="node8" class="node">
<title>Avgpool</title>
<polygon fill="none" stroke="black" points="148,-268 28,-268 28,-232 148,-232 148,-268"/>
<text text-anchor="middle" x="88" y="-246.3" font-family="Times,serif" font-size="14.00">AveragePooling2D</text>
</g>
<!-- Res2&#45;&gt;Avgpool -->
<g id="edge7" class="edge">
<title>Res2&#45;&gt;Avgpool</title>
<path fill="none" stroke="black" d="M88,-285.97C88,-283.57 88,-281.06 88,-278.52"/>
<polygon fill="black" stroke="black" points="91.5,-278.24 88,-268.24 84.5,-278.24 91.5,-278.24"/>
</g>
<!-- flatten -->
<g id="node9" class="node">
<title>flatten</title>
<polygon fill="none" stroke="black" points="119.5,-214 56.5,-214 56.5,-178 119.5,-178 119.5,-214"/>
<text text-anchor="middle" x="88" y="-192.3" font-family="Times,serif" font-size="14.00">Flatten()</text>
</g>
<!-- Avgpool&#45;&gt;flatten -->
<g id="edge8" class="edge">
<title>Avgpool&#45;&gt;flatten</title>
<path fill="none" stroke="black" d="M88,-231.97C88,-229.57 88,-227.06 88,-224.52"/>
<polygon fill="black" stroke="black" points="91.5,-224.24 88,-214.24 84.5,-224.24 91.5,-224.24"/>
</g>
<!-- dense1 -->
<g id="node10" class="node">
<title>dense1</title>
<polygon fill="none" stroke="black" points="159.5,-160 16.5,-160 16.5,-124 159.5,-124 159.5,-160"/>
<text text-anchor="middle" x="88" y="-138.3" font-family="Times,serif" font-size="14.00">Dense, ReLU, Dropout</text>
</g>
<!-- flatten&#45;&gt;dense1 -->
<g id="edge9" class="edge">
<title>flatten&#45;&gt;dense1</title>
<path fill="none" stroke="black" d="M88,-177.97C88,-175.57 88,-173.06 88,-170.52"/>
<polygon fill="black" stroke="black" points="91.5,-170.24 88,-160.24 84.5,-170.24 91.5,-170.24"/>
</g>
<!-- dense2 -->
<g id="node11" class="node">
<title>dense2</title>
<polygon fill="none" stroke="black" points="159.5,-106 16.5,-106 16.5,-70 159.5,-70 159.5,-106"/>
<text text-anchor="middle" x="88" y="-84.3" font-family="Times,serif" font-size="14.00">Dense, ReLU, Dropout</text>
</g>
<!-- dense1&#45;&gt;dense2 -->
<g id="edge10" class="edge">
<title>dense1&#45;&gt;dense2</title>
<path fill="none" stroke="black" d="M88,-123.97C88,-121.57 88,-119.06 88,-116.52"/>
<polygon fill="black" stroke="black" points="91.5,-116.24 88,-106.24 84.5,-116.24 91.5,-116.24"/>
</g>
<!-- output -->
<g id="node12" class="node">
<title>output</title>
<polygon fill="none" stroke="black" points="123,-52 53,-52 53,-16 123,-16 123,-52"/>
<text text-anchor="middle" x="88" y="-30.3" font-family="Times,serif" font-size="14.00">OUTPUT</text>
</g>
<!-- dense2&#45;&gt;output -->
<g id="edge11" class="edge">
<title>dense2&#45;&gt;output</title>
<path fill="none" stroke="black" d="M88,-69.97C88,-67.57 88,-65.06 88,-62.52"/>
<polygon fill="black" stroke="black" points="91.5,-62.24 88,-52.24 84.5,-62.24 91.5,-62.24"/>
</g>
<!-- conv -->
<g id="node13" class="node">
<title>conv</title>
<polygon fill="lightpink" stroke="black" points="304,-646 184,-646 184,-610 304,-610 304,-646"/>
<text text-anchor="middle" x="244" y="-624.3" font-family="Times,serif" font-size="14.00">Convolution Block</text>
</g>
<!-- id1 -->
<g id="node14" class="node">
<title>id1</title>
<polygon fill="lightgreen" stroke="black" points="296.5,-592 191.5,-592 191.5,-556 296.5,-556 296.5,-592"/>
<text text-anchor="middle" x="244" y="-570.3" font-family="Times,serif" font-size="14.00">Identity Block 1</text>
</g>
<!-- conv&#45;&gt;id1 -->
<g id="edge12" class="edge">
<title>conv&#45;&gt;id1</title>
<path fill="none" stroke="black" d="M244,-609.97C244,-607.57 244,-605.06 244,-602.52"/>
<polygon fill="black" stroke="black" points="247.5,-602.24 244,-592.24 240.5,-602.24 247.5,-602.24"/>
</g>
<!-- id2 -->
<g id="node15" class="node">
<title>id2</title>
<polygon fill="lightgreen" stroke="black" points="296.5,-538 191.5,-538 191.5,-502 296.5,-502 296.5,-538"/>
<text text-anchor="middle" x="244" y="-516.3" font-family="Times,serif" font-size="14.00">Identity Block 2</text>
</g>
<!-- id1&#45;&gt;id2 -->
<g id="edge13" class="edge">
<title>id1&#45;&gt;id2</title>
<path fill="none" stroke="black" d="M244,-555.97C244,-553.57 244,-551.06 244,-548.52"/>
<polygon fill="black" stroke="black" points="247.5,-548.24 244,-538.24 240.5,-548.24 247.5,-548.24"/>
</g>
</g>
</svg>
