<?xml version="1.0" encoding="UTF-8" standalone="no"?>
<!DOCTYPE svg PUBLIC "-//W3C//DTD SVG 1.1//EN"
 "http://www.w3.org/Graphics/SVG/1.1/DTD/svg11.dtd">
<!-- Generated by graphviz version 2.43.0 (0)
 -->
<!-- Title: %3 Pages: 1 -->
<svg width="244pt" height="648pt"
 viewBox="0.00 0.00 244.11 648.00" xmlns="http://www.w3.org/2000/svg" xmlns:xlink="http://www.w3.org/1999/xlink">
<g id="graph0" class="graph" transform="scale(0.69 0.69) rotate(0) translate(4 941)">
<title>%3</title>
<polygon fill="white" stroke="transparent" points="-4,4 -4,-941 352,-941 352,4 -4,4"/>
<g id="clust1" class="cluster">
<title>cluster_final_model</title>
<polygon fill="lightblue" stroke="lightblue" points="8,-8 8,-929 180,-929 180,-8 8,-8"/>
<text text-anchor="middle" x="94" y="-913.8" font-family="Times,serif" font-size="14.00">FINAL MODEL</text>
</g>
<g id="clust2" class="cluster">
<title>cluster_resblock</title>
<polygon fill="lightgrey" stroke="lightgrey" points="188,-683 188,-929 340,-929 340,-683 188,-683"/>
<text text-anchor="middle" x="264" y="-913.8" font-family="Times,serif" font-size="14.00">RES&#45;BLOCK</text>
</g>
<!-- input -->
<g id="node1" class="node">
<title>input</title>
<polygon fill="lightgrey" stroke="black" points="134.5,-898 53.5,-898 53.5,-841 134.5,-841 134.5,-898"/>
<text text-anchor="middle" x="94" y="-866.4" font-family="Times,serif" font-size="12.00">INPUT</text>
</g>
<!-- zeropad -->
<g id="node2" class="node">
<title>zeropad</title>
<polygon fill="lightgrey" stroke="black" points="148,-823 40,-823 40,-766 148,-766 148,-823"/>
<text text-anchor="middle" x="94" y="-791.4" font-family="Times,serif" font-size="12.00">Zero padding</text>
</g>
<!-- input&#45;&gt;zeropad -->
<g id="edge1" class="edge">
<title>input&#45;&gt;zeropad</title>
<path fill="none" stroke="black" d="M94,-840.9C94,-838.36 94,-835.75 94,-833.14"/>
<polygon fill="black" stroke="black" points="97.5,-833.14 94,-823.14 90.5,-833.14 97.5,-833.14"/>
</g>
<!-- conv2d -->
<g id="node3" class="node">
<title>conv2d</title>
<polygon fill="lightgrey" stroke="black" points="137,-748 51,-748 51,-691 137,-691 137,-748"/>
<text text-anchor="middle" x="94" y="-716.4" font-family="Times,serif" font-size="12.00">Conv2D</text>
</g>
<!-- zeropad&#45;&gt;conv2d -->
<g id="edge2" class="edge">
<title>zeropad&#45;&gt;conv2d</title>
<path fill="none" stroke="black" d="M94,-765.9C94,-763.36 94,-760.75 94,-758.14"/>
<polygon fill="black" stroke="black" points="97.5,-758.14 94,-748.14 90.5,-758.14 97.5,-758.14"/>
</g>
<!-- bn_relu -->
<g id="node4" class="node">
<title>bn_relu</title>
<polygon fill="lightgrey" stroke="black" points="162,-673 26,-673 26,-616 162,-616 162,-673"/>
<text text-anchor="middle" x="94" y="-641.4" font-family="Times,serif" font-size="12.00">BatchNorm, ReLU</text>
</g>
<!-- conv2d&#45;&gt;bn_relu -->
<g id="edge3" class="edge">
<title>conv2d&#45;&gt;bn_relu</title>
<path fill="none" stroke="black" d="M94,-690.9C94,-688.36 94,-685.75 94,-683.14"/>
<polygon fill="black" stroke="black" points="97.5,-683.14 94,-673.14 90.5,-683.14 97.5,-683.14"/>
</g>
<!-- pool -->
<g id="node5" class="node">
<title>pool</title>
<polygon fill="lightgrey" stroke="black" points="145.5,-598 42.5,-598 42.5,-541 145.5,-541 145.5,-598"/>
<text text-anchor="middle" x="94" y="-566.4" font-family="Times,serif" font-size="12.00">MaxPool2D</text>
</g>
<!-- bn_relu&#45;&gt;pool -->
<g id="edge4" class="edge">
<title>bn_relu&#45;&gt;pool</title>
<path fill="none" stroke="black" d="M94,-615.9C94,-613.36 94,-610.75 94,-608.14"/>
<polygon fill="black" stroke="black" points="97.5,-608.14 94,-598.14 90.5,-608.14 97.5,-608.14"/>
</g>
<!-- Res1 -->
<g id="node6" class="node">
<title>Res1</title>
<polygon fill="lightgray" stroke="black" points="140.5,-523 47.5,-523 47.5,-466 140.5,-466 140.5,-523"/>
<text text-anchor="middle" x="94" y="-491.4" font-family="Times,serif" font-size="12.00">Res&#45;block</text>
</g>
<!-- pool&#45;&gt;Res1 -->
<g id="edge5" class="edge">
<title>pool&#45;&gt;Res1</title>
<path fill="none" stroke="black" d="M94,-540.9C94,-538.36 94,-535.75 94,-533.14"/>
<polygon fill="black" stroke="black" points="97.5,-533.14 94,-523.14 90.5,-533.14 97.5,-533.14"/>
</g>
<!-- Res2 -->
<g id="node7" class="node">
<title>Res2</title>
<polygon fill="lightgray" stroke="black" points="140.5,-448 47.5,-448 47.5,-391 140.5,-391 140.5,-448"/>
<text text-anchor="middle" x="94" y="-416.4" font-family="Times,serif" font-size="12.00">Res&#45;block</text>
</g>
<!-- Res1&#45;&gt;Res2 -->
<g id="edge6" class="edge">
<title>Res1&#45;&gt;Res2</title>
<path fill="none" stroke="black" d="M94,-465.9C94,-463.36 94,-460.75 94,-458.14"/>
<polygon fill="black" stroke="black" points="97.5,-458.14 94,-448.14 90.5,-458.14 97.5,-458.14"/>
</g>
<!-- Avgpool -->
<g id="node8" class="node">
<title>Avgpool</title>
<polygon fill="lightgrey" stroke="black" points="161.5,-373 26.5,-373 26.5,-316 161.5,-316 161.5,-373"/>
<text text-anchor="middle" x="94" y="-341.4" font-family="Times,serif" font-size="12.00">AveragePooling2D</text>
</g>
<!-- Res2&#45;&gt;Avgpool -->
<g id="edge7" class="edge">
<title>Res2&#45;&gt;Avgpool</title>
<path fill="none" stroke="black" d="M94,-390.9C94,-388.36 94,-385.75 94,-383.14"/>
<polygon fill="black" stroke="black" points="97.5,-383.14 94,-373.14 90.5,-383.14 97.5,-383.14"/>
</g>
<!-- flatten -->
<g id="node9" class="node">
<title>flatten</title>
<polygon fill="lightgrey" stroke="black" points="136,-298 52,-298 52,-241 136,-241 136,-298"/>
<text text-anchor="middle" x="94" y="-266.4" font-family="Times,serif" font-size="12.00">Flatten()</text>
</g>
<!-- Avgpool&#45;&gt;flatten -->
<g id="edge8" class="edge">
<title>Avgpool&#45;&gt;flatten</title>
<path fill="none" stroke="black" d="M94,-315.9C94,-313.36 94,-310.75 94,-308.14"/>
<polygon fill="black" stroke="black" points="97.5,-308.14 94,-298.14 90.5,-308.14 97.5,-308.14"/>
</g>
<!-- dense1 -->
<g id="node10" class="node">
<title>dense1</title>
<polygon fill="lightgrey" stroke="black" points="172,-223 16,-223 16,-166 172,-166 172,-223"/>
<text text-anchor="middle" x="94" y="-191.4" font-family="Times,serif" font-size="12.00">Dense, ReLU, Dropout</text>
</g>
<!-- flatten&#45;&gt;dense1 -->
<g id="edge9" class="edge">
<title>flatten&#45;&gt;dense1</title>
<path fill="none" stroke="black" d="M94,-240.9C94,-238.36 94,-235.75 94,-233.14"/>
<polygon fill="black" stroke="black" points="97.5,-233.14 94,-223.14 90.5,-233.14 97.5,-233.14"/>
</g>
<!-- dense2 -->
<g id="node11" class="node">
<title>dense2</title>
<polygon fill="lightgrey" stroke="black" points="172,-148 16,-148 16,-91 172,-91 172,-148"/>
<text text-anchor="middle" x="94" y="-116.4" font-family="Times,serif" font-size="12.00">Dense, ReLU, Dropout</text>
</g>
<!-- dense1&#45;&gt;dense2 -->
<g id="edge10" class="edge">
<title>dense1&#45;&gt;dense2</title>
<path fill="none" stroke="black" d="M94,-165.9C94,-163.36 94,-160.75 94,-158.14"/>
<polygon fill="black" stroke="black" points="97.5,-158.14 94,-148.14 90.5,-158.14 97.5,-158.14"/>
</g>
<!-- output -->
<g id="node12" class="node">
<title>output</title>
<polygon fill="lightgrey" stroke="black" points="140.5,-73 47.5,-73 47.5,-16 140.5,-16 140.5,-73"/>
<text text-anchor="middle" x="94" y="-41.4" font-family="Times,serif" font-size="12.00">OUTPUT</text>
</g>
<!-- dense2&#45;&gt;output -->
<g id="edge11" class="edge">
<title>dense2&#45;&gt;output</title>
<path fill="none" stroke="black" d="M94,-90.9C94,-88.36 94,-85.75 94,-83.14"/>
<polygon fill="black" stroke="black" points="97.5,-83.14 94,-73.14 90.5,-83.14 97.5,-83.14"/>
</g>
<!-- conv -->
<g id="node13" class="node">
<title>conv</title>
<polygon fill="lightpink" stroke="black" points="331.5,-898 196.5,-898 196.5,-841 331.5,-841 331.5,-898"/>
<text text-anchor="middle" x="264" y="-866.4" font-family="Times,serif" font-size="12.00">Convolution Block</text>
</g>
<!-- id1 -->
<g id="node14" class="node">
<title>id1</title>
<polygon fill="lightgreen" stroke="black" points="324.5,-823 203.5,-823 203.5,-766 324.5,-766 324.5,-823"/>
<text text-anchor="middle" x="264" y="-791.4" font-family="Times,serif" font-size="12.00">Identity Block 1</text>
</g>
<!-- conv&#45;&gt;id1 -->
<g id="edge12" class="edge">
<title>conv&#45;&gt;id1</title>
<path fill="none" stroke="black" d="M264,-840.9C264,-838.36 264,-835.75 264,-833.14"/>
<polygon fill="black" stroke="black" points="267.5,-833.14 264,-823.14 260.5,-833.14 267.5,-833.14"/>
</g>
<!-- id2 -->
<g id="node15" class="node">
<title>id2</title>
<polygon fill="lightgreen" stroke="black" points="324.5,-748 203.5,-748 203.5,-691 324.5,-691 324.5,-748"/>
<text text-anchor="middle" x="264" y="-716.4" font-family="Times,serif" font-size="12.00">Identity Block 2</text>
</g>
<!-- id1&#45;&gt;id2 -->
<g id="edge13" class="edge">
<title>id1&#45;&gt;id2</title>
<path fill="none" stroke="black" d="M264,-765.9C264,-763.36 264,-760.75 264,-758.14"/>
<polygon fill="black" stroke="black" points="267.5,-758.14 264,-748.14 260.5,-758.14 267.5,-758.14"/>
</g>
</g>
</svg>
