<?xml version="1.0" encoding="UTF-8" standalone="no"?>
<!DOCTYPE svg PUBLIC "-//W3C//DTD SVG 1.1//EN"
 "http://www.w3.org/Graphics/SVG/1.1/DTD/svg11.dtd">
<!-- Generated by graphviz version 2.43.0 (0)
 -->
<!-- Title: %3 Pages: 1 -->
<svg width="288pt" height="611pt"
 viewBox="0.00 0.00 288.00 611.12" xmlns="http://www.w3.org/2000/svg" xmlns:xlink="http://www.w3.org/1999/xlink">
<g id="graph0" class="graph" transform="scale(0.88 0.88) rotate(0) translate(4 692)">
<title>%3</title>
<polygon fill="white" stroke="transparent" points="-4,4 -4,-692 324,-692 324,4 -4,4"/>
<g id="clust1" class="cluster">
<title>cluster_resblock</title>
<polygon fill="lightgrey" stroke="lightgrey" points="8,-494 8,-680 144,-680 144,-494 8,-494"/>
<text text-anchor="middle" x="76" y="-663.2" font-family="Times,serif" font-size="16.00">RES&#45;BLOCK</text>
</g>
<g id="clust2" class="cluster">
<title>cluster_final_model</title>
<polygon fill="lightblue" stroke="lightblue" points="152,-8 152,-680 312,-680 312,-8 152,-8"/>
<text text-anchor="middle" x="232" y="-663.2" font-family="Times,serif" font-size="16.00">FINAL MODEL</text>
</g>
<!-- conv -->
<g id="node1" class="node">
<title>conv</title>
<polygon fill="lightpink" stroke="black" points="136,-646 16,-646 16,-610 136,-610 136,-646"/>
<text text-anchor="middle" x="76" y="-624.3" font-family="Times,serif" font-size="14.00">Convolution Block</text>
</g>
<!-- id1 -->
<g id="node2" class="node">
<title>id1</title>
<polygon fill="lightgreen" stroke="black" points="128.5,-592 23.5,-592 23.5,-556 128.5,-556 128.5,-592"/>
<text text-anchor="middle" x="76" y="-570.3" font-family="Times,serif" font-size="14.00">Identity Block 1</text>
</g>
<!-- conv&#45;&gt;id1 -->
<g id="edge1" class="edge">
<title>conv&#45;&gt;id1</title>
<path fill="none" stroke="black" d="M76,-609.97C76,-607.57 76,-605.06 76,-602.52"/>
<polygon fill="black" stroke="black" points="79.5,-602.24 76,-592.24 72.5,-602.24 79.5,-602.24"/>
</g>
<!-- id2 -->
<g id="node3" class="node">
<title>id2</title>
<polygon fill="lightgreen" stroke="black" points="128.5,-538 23.5,-538 23.5,-502 128.5,-502 128.5,-538"/>
<text text-anchor="middle" x="76" y="-516.3" font-family="Times,serif" font-size="14.00">Identity Block 2</text>
</g>
<!-- id1&#45;&gt;id2 -->
<g id="edge2" class="edge">
<title>id1&#45;&gt;id2</title>
<path fill="none" stroke="black" d="M76,-555.97C76,-553.57 76,-551.06 76,-548.52"/>
<polygon fill="black" stroke="black" points="79.5,-548.24 76,-538.24 72.5,-548.24 79.5,-548.24"/>
</g>
<!-- input -->
<g id="node4" class="node">
<title>input</title>
<polygon fill="none" stroke="black" points="260,-646 204,-646 204,-610 260,-610 260,-646"/>
<text text-anchor="middle" x="232" y="-624.3" font-family="Times,serif" font-size="14.00">INPUT</text>
</g>
<!-- zeropad -->
<g id="node5" class="node">
<title>zeropad</title>
<polygon fill="none" stroke="black" points="276.5,-592 187.5,-592 187.5,-556 276.5,-556 276.5,-592"/>
<text text-anchor="middle" x="232" y="-570.3" font-family="Times,serif" font-size="14.00">Zero padding</text>
</g>
<!-- input&#45;&gt;zeropad -->
<g id="edge3" class="edge">
<title>input&#45;&gt;zeropad</title>
<path fill="none" stroke="black" d="M232,-609.97C232,-607.57 232,-605.06 232,-602.52"/>
<polygon fill="black" stroke="black" points="235.5,-602.24 232,-592.24 228.5,-602.24 235.5,-602.24"/>
</g>
<!-- conv2d -->
<g id="node6" class="node">
<title>conv2d</title>
<polygon fill="none" stroke="black" points="263,-538 201,-538 201,-502 263,-502 263,-538"/>
<text text-anchor="middle" x="232" y="-516.3" font-family="Times,serif" font-size="14.00">Conv2D</text>
</g>
<!-- zeropad&#45;&gt;conv2d -->
<g id="edge4" class="edge">
<title>zeropad&#45;&gt;conv2d</title>
<path fill="none" stroke="black" d="M232,-555.97C232,-553.57 232,-551.06 232,-548.52"/>
<polygon fill="black" stroke="black" points="235.5,-548.24 232,-538.24 228.5,-548.24 235.5,-548.24"/>
</g>
<!-- bn_relu -->
<g id="node7" class="node">
<title>bn_relu</title>
<polygon fill="none" stroke="black" points="292.5,-484 171.5,-484 171.5,-448 292.5,-448 292.5,-484"/>
<text text-anchor="middle" x="232" y="-462.3" font-family="Times,serif" font-size="14.00">BatchNorm, ReLU</text>
</g>
<!-- conv2d&#45;&gt;bn_relu -->
<g id="edge5" class="edge">
<title>conv2d&#45;&gt;bn_relu</title>
<path fill="none" stroke="black" d="M232,-501.97C232,-499.57 232,-497.06 232,-494.52"/>
<polygon fill="black" stroke="black" points="235.5,-494.24 232,-484.24 228.5,-494.24 235.5,-494.24"/>
</g>
<!-- pool -->
<g id="node8" class="node">
<title>pool</title>
<polygon fill="none" stroke="black" points="273.5,-430 190.5,-430 190.5,-394 273.5,-394 273.5,-430"/>
<text text-anchor="middle" x="232" y="-408.3" font-family="Times,serif" font-size="14.00">MaxPool2D</text>
</g>
<!-- bn_relu&#45;&gt;pool -->
<g id="edge6" class="edge">
<title>bn_relu&#45;&gt;pool</title>
<path fill="none" stroke="black" d="M232,-447.97C232,-445.57 232,-443.06 232,-440.52"/>
<polygon fill="black" stroke="black" points="235.5,-440.24 232,-430.24 228.5,-440.24 235.5,-440.24"/>
</g>
<!-- Res1 -->
<g id="node9" class="node">
<title>Res1</title>
<polygon fill="lightgray" stroke="black" points="267.5,-376 196.5,-376 196.5,-340 267.5,-340 267.5,-376"/>
<text text-anchor="middle" x="232" y="-354.3" font-family="Times,serif" font-size="14.00">Res&#45;block</text>
</g>
<!-- pool&#45;&gt;Res1 -->
<g id="edge7" class="edge">
<title>pool&#45;&gt;Res1</title>
<path fill="none" stroke="black" d="M232,-393.97C232,-391.57 232,-389.06 232,-386.52"/>
<polygon fill="black" stroke="black" points="235.5,-386.24 232,-376.24 228.5,-386.24 235.5,-386.24"/>
</g>
<!-- Res2 -->
<g id="node10" class="node">
<title>Res2</title>
<polygon fill="lightgray" stroke="black" points="267.5,-322 196.5,-322 196.5,-286 267.5,-286 267.5,-322"/>
<text text-anchor="middle" x="232" y="-300.3" font-family="Times,serif" font-size="14.00">Res&#45;block</text>
</g>
<!-- Res1&#45;&gt;Res2 -->
<g id="edge8" class="edge">
<title>Res1&#45;&gt;Res2</title>
<path fill="none" stroke="black" d="M232,-339.97C232,-337.57 232,-335.06 232,-332.52"/>
<polygon fill="black" stroke="black" points="235.5,-332.24 232,-322.24 228.5,-332.24 235.5,-332.24"/>
</g>
<!-- Avgpool -->
<g id="node11" class="node">
<title>Avgpool</title>
<polygon fill="none" stroke="black" points="292,-268 172,-268 172,-232 292,-232 292,-268"/>
<text text-anchor="middle" x="232" y="-246.3" font-family="Times,serif" font-size="14.00">AveragePooling2D</text>
</g>
<!-- Res2&#45;&gt;Avgpool -->
<g id="edge9" class="edge">
<title>Res2&#45;&gt;Avgpool</title>
<path fill="none" stroke="black" d="M232,-285.97C232,-283.57 232,-281.06 232,-278.52"/>
<polygon fill="black" stroke="black" points="235.5,-278.24 232,-268.24 228.5,-278.24 235.5,-278.24"/>
</g>
<!-- flatten -->
<g id="node12" class="node">
<title>flatten</title>
<polygon fill="none" stroke="black" points="263.5,-214 200.5,-214 200.5,-178 263.5,-178 263.5,-214"/>
<text text-anchor="middle" x="232" y="-192.3" font-family="Times,serif" font-size="14.00">Flatten()</text>
</g>
<!-- Avgpool&#45;&gt;flatten -->
<g id="edge10" class="edge">
<title>Avgpool&#45;&gt;flatten</title>
<path fill="none" stroke="black" d="M232,-231.97C232,-229.57 232,-227.06 232,-224.52"/>
<polygon fill="black" stroke="black" points="235.5,-224.24 232,-214.24 228.5,-224.24 235.5,-224.24"/>
</g>
<!-- dense1 -->
<g id="node13" class="node">
<title>dense1</title>
<polygon fill="none" stroke="black" points="303.5,-160 160.5,-160 160.5,-124 303.5,-124 303.5,-160"/>
<text text-anchor="middle" x="232" y="-138.3" font-family="Times,serif" font-size="14.00">Dense, ReLU, Dropout</text>
</g>
<!-- flatten&#45;&gt;dense1 -->
<g id="edge11" class="edge">
<title>flatten&#45;&gt;dense1</title>
<path fill="none" stroke="black" d="M232,-177.97C232,-175.57 232,-173.06 232,-170.52"/>
<polygon fill="black" stroke="black" points="235.5,-170.24 232,-160.24 228.5,-170.24 235.5,-170.24"/>
</g>
<!-- dense2 -->
<g id="node14" class="node">
<title>dense2</title>
<polygon fill="none" stroke="black" points="303.5,-106 160.5,-106 160.5,-70 303.5,-70 303.5,-106"/>
<text text-anchor="middle" x="232" y="-84.3" font-family="Times,serif" font-size="14.00">Dense, ReLU, Dropout</text>
</g>
<!-- dense1&#45;&gt;dense2 -->
<g id="edge12" class="edge">
<title>dense1&#45;&gt;dense2</title>
<path fill="none" stroke="black" d="M232,-123.97C232,-121.57 232,-119.06 232,-116.52"/>
<polygon fill="black" stroke="black" points="235.5,-116.24 232,-106.24 228.5,-116.24 235.5,-116.24"/>
</g>
<!-- output -->
<g id="node15" class="node">
<title>output</title>
<polygon fill="none" stroke="black" points="267,-52 197,-52 197,-16 267,-16 267,-52"/>
<text text-anchor="middle" x="232" y="-30.3" font-family="Times,serif" font-size="14.00">OUTPUT</text>
</g>
<!-- dense2&#45;&gt;output -->
<g id="edge13" class="edge">
<title>dense2&#45;&gt;output</title>
<path fill="none" stroke="black" d="M232,-69.97C232,-67.57 232,-65.06 232,-62.52"/>
<polygon fill="black" stroke="black" points="235.5,-62.24 232,-52.24 228.5,-62.24 235.5,-62.24"/>
</g>
</g>
</svg>
