<?xml version="1.0" encoding="UTF-8" standalone="no"?>
<!DOCTYPE svg PUBLIC "-//W3C//DTD SVG 1.1//EN"
 "http://www.w3.org/Graphics/SVG/1.1/DTD/svg11.dtd">
<!-- Generated by graphviz version 2.43.0 (0)
 -->
<!-- Title: %3 Pages: 1 -->
<svg width="252pt" height="554pt"
 viewBox="0.00 0.00 252.00 553.97" xmlns="http://www.w3.org/2000/svg" xmlns:xlink="http://www.w3.org/1999/xlink">
<g id="graph0" class="graph" transform="scale(0.72 0.72) rotate(0) translate(4 761)">
<title>%3</title>
<polygon fill="white" stroke="transparent" points="-4,4 -4,-761 344,-761 344,4 -4,4"/>
<g id="clust1" class="cluster">
<title>cluster_final_model</title>
<polygon fill="lightblue" stroke="lightblue" points="8,-8 8,-749 176,-749 176,-8 8,-8"/>
<text text-anchor="middle" x="92" y="-733.8" font-family="Times,serif" font-size="14.00">FINAL MODEL</text>
</g>
<g id="clust2" class="cluster">
<title>cluster_resblock</title>
<polygon fill="lightgrey" stroke="lightgrey" points="184,-548 184,-749 332,-749 332,-548 184,-548"/>
<text text-anchor="middle" x="258" y="-733.8" font-family="Times,serif" font-size="14.00">RES&#45;BLOCK</text>
</g>
<!-- input -->
<g id="node1" class="node">
<title>input</title>
<polygon fill="none" stroke="black" points="126,-718 58,-718 58,-676 126,-676 126,-718"/>
<text text-anchor="middle" x="92" y="-693.6" font-family="Times,serif" font-size="13.00">INPUT</text>
</g>
<!-- zeropad -->
<g id="node2" class="node">
<title>zeropad</title>
<polygon fill="none" stroke="black" points="142.5,-658 41.5,-658 41.5,-616 142.5,-616 142.5,-658"/>
<text text-anchor="middle" x="92" y="-633.6" font-family="Times,serif" font-size="13.00">Zero padding</text>
</g>
<!-- input&#45;&gt;zeropad -->
<g id="edge1" class="edge">
<title>input&#45;&gt;zeropad</title>
<path fill="none" stroke="black" d="M92,-675.71C92,-673.34 92,-670.89 92,-668.42"/>
<polygon fill="black" stroke="black" points="95.5,-668.37 92,-658.37 88.5,-668.37 95.5,-668.37"/>
</g>
<!-- conv2d -->
<g id="node3" class="node">
<title>conv2d</title>
<polygon fill="none" stroke="black" points="129,-598 55,-598 55,-556 129,-556 129,-598"/>
<text text-anchor="middle" x="92" y="-573.6" font-family="Times,serif" font-size="13.00">Conv2D</text>
</g>
<!-- zeropad&#45;&gt;conv2d -->
<g id="edge2" class="edge">
<title>zeropad&#45;&gt;conv2d</title>
<path fill="none" stroke="black" d="M92,-615.71C92,-613.34 92,-610.89 92,-608.42"/>
<polygon fill="black" stroke="black" points="95.5,-608.37 92,-598.37 88.5,-608.37 95.5,-608.37"/>
</g>
<!-- bn_relu -->
<g id="node4" class="node">
<title>bn_relu</title>
<polygon fill="none" stroke="black" points="157,-538 27,-538 27,-496 157,-496 157,-538"/>
<text text-anchor="middle" x="92" y="-513.6" font-family="Times,serif" font-size="13.00">BatchNorm, ReLU</text>
</g>
<!-- conv2d&#45;&gt;bn_relu -->
<g id="edge3" class="edge">
<title>conv2d&#45;&gt;bn_relu</title>
<path fill="none" stroke="black" d="M92,-555.71C92,-553.34 92,-550.89 92,-548.42"/>
<polygon fill="black" stroke="black" points="95.5,-548.37 92,-538.37 88.5,-548.37 95.5,-548.37"/>
</g>
<!-- pool -->
<g id="node5" class="node">
<title>pool</title>
<polygon fill="none" stroke="black" points="139,-478 45,-478 45,-436 139,-436 139,-478"/>
<text text-anchor="middle" x="92" y="-453.6" font-family="Times,serif" font-size="13.00">MaxPool2D</text>
</g>
<!-- bn_relu&#45;&gt;pool -->
<g id="edge4" class="edge">
<title>bn_relu&#45;&gt;pool</title>
<path fill="none" stroke="black" d="M92,-495.71C92,-493.34 92,-490.89 92,-488.42"/>
<polygon fill="black" stroke="black" points="95.5,-488.37 92,-478.37 88.5,-488.37 95.5,-488.37"/>
</g>
<!-- Res1 -->
<g id="node6" class="node">
<title>Res1</title>
<polygon fill="lightgray" stroke="black" points="133.5,-418 50.5,-418 50.5,-376 133.5,-376 133.5,-418"/>
<text text-anchor="middle" x="92" y="-393.6" font-family="Times,serif" font-size="13.00">Res&#45;block</text>
</g>
<!-- pool&#45;&gt;Res1 -->
<g id="edge5" class="edge">
<title>pool&#45;&gt;Res1</title>
<path fill="none" stroke="black" d="M92,-435.71C92,-433.34 92,-430.89 92,-428.42"/>
<polygon fill="black" stroke="black" points="95.5,-428.37 92,-418.37 88.5,-428.37 95.5,-428.37"/>
</g>
<!-- Res2 -->
<g id="node7" class="node">
<title>Res2</title>
<polygon fill="lightgray" stroke="black" points="133.5,-358 50.5,-358 50.5,-316 133.5,-316 133.5,-358"/>
<text text-anchor="middle" x="92" y="-333.6" font-family="Times,serif" font-size="13.00">Res&#45;block</text>
</g>
<!-- Res1&#45;&gt;Res2 -->
<g id="edge6" class="edge">
<title>Res1&#45;&gt;Res2</title>
<path fill="none" stroke="black" d="M92,-375.71C92,-373.34 92,-370.89 92,-368.42"/>
<polygon fill="black" stroke="black" points="95.5,-368.37 92,-358.37 88.5,-368.37 95.5,-368.37"/>
</g>
<!-- Avgpool -->
<g id="node8" class="node">
<title>Avgpool</title>
<polygon fill="none" stroke="black" points="157.5,-298 26.5,-298 26.5,-256 157.5,-256 157.5,-298"/>
<text text-anchor="middle" x="92" y="-273.6" font-family="Times,serif" font-size="13.00">AveragePooling2D</text>
</g>
<!-- Res2&#45;&gt;Avgpool -->
<g id="edge7" class="edge">
<title>Res2&#45;&gt;Avgpool</title>
<path fill="none" stroke="black" d="M92,-315.71C92,-313.34 92,-310.89 92,-308.42"/>
<polygon fill="black" stroke="black" points="95.5,-308.37 92,-298.37 88.5,-308.37 95.5,-308.37"/>
</g>
<!-- flatten -->
<g id="node9" class="node">
<title>flatten</title>
<polygon fill="none" stroke="black" points="129.5,-238 54.5,-238 54.5,-196 129.5,-196 129.5,-238"/>
<text text-anchor="middle" x="92" y="-213.6" font-family="Times,serif" font-size="13.00">Flatten()</text>
</g>
<!-- Avgpool&#45;&gt;flatten -->
<g id="edge8" class="edge">
<title>Avgpool&#45;&gt;flatten</title>
<path fill="none" stroke="black" d="M92,-255.71C92,-253.34 92,-250.89 92,-248.42"/>
<polygon fill="black" stroke="black" points="95.5,-248.37 92,-238.37 88.5,-248.37 95.5,-248.37"/>
</g>
<!-- dense1 -->
<g id="node10" class="node">
<title>dense1</title>
<polygon fill="none" stroke="black" points="168,-178 16,-178 16,-136 168,-136 168,-178"/>
<text text-anchor="middle" x="92" y="-153.6" font-family="Times,serif" font-size="13.00">Dense, ReLU, Dropout</text>
</g>
<!-- flatten&#45;&gt;dense1 -->
<g id="edge9" class="edge">
<title>flatten&#45;&gt;dense1</title>
<path fill="none" stroke="black" d="M92,-195.71C92,-193.34 92,-190.89 92,-188.42"/>
<polygon fill="black" stroke="black" points="95.5,-188.37 92,-178.37 88.5,-188.37 95.5,-188.37"/>
</g>
<!-- dense2 -->
<g id="node11" class="node">
<title>dense2</title>
<polygon fill="none" stroke="black" points="168,-118 16,-118 16,-76 168,-76 168,-118"/>
<text text-anchor="middle" x="92" y="-93.6" font-family="Times,serif" font-size="13.00">Dense, ReLU, Dropout</text>
</g>
<!-- dense1&#45;&gt;dense2 -->
<g id="edge10" class="edge">
<title>dense1&#45;&gt;dense2</title>
<path fill="none" stroke="black" d="M92,-135.71C92,-133.34 92,-130.89 92,-128.42"/>
<polygon fill="black" stroke="black" points="95.5,-128.37 92,-118.37 88.5,-128.37 95.5,-128.37"/>
</g>
<!-- output -->
<g id="node12" class="node">
<title>output</title>
<polygon fill="none" stroke="black" points="133,-58 51,-58 51,-16 133,-16 133,-58"/>
<text text-anchor="middle" x="92" y="-33.6" font-family="Times,serif" font-size="13.00">OUTPUT</text>
</g>
<!-- dense2&#45;&gt;output -->
<g id="edge11" class="edge">
<title>dense2&#45;&gt;output</title>
<path fill="none" stroke="black" d="M92,-75.71C92,-73.34 92,-70.89 92,-68.42"/>
<polygon fill="black" stroke="black" points="95.5,-68.37 92,-58.37 88.5,-68.37 95.5,-68.37"/>
</g>
<!-- conv -->
<g id="node13" class="node">
<title>conv</title>
<polygon fill="lightpink" stroke="black" points="323.5,-718 192.5,-718 192.5,-676 323.5,-676 323.5,-718"/>
<text text-anchor="middle" x="258" y="-693.6" font-family="Times,serif" font-size="13.00">Convolution Block</text>
</g>
<!-- id1 -->
<g id="node14" class="node">
<title>id1</title>
<polygon fill="lightgreen" stroke="black" points="316,-658 200,-658 200,-616 316,-616 316,-658"/>
<text text-anchor="middle" x="258" y="-633.6" font-family="Times,serif" font-size="13.00">Identity Block 1</text>
</g>
<!-- conv&#45;&gt;id1 -->
<g id="edge12" class="edge">
<title>conv&#45;&gt;id1</title>
<path fill="none" stroke="black" d="M258,-675.71C258,-673.34 258,-670.89 258,-668.42"/>
<polygon fill="black" stroke="black" points="261.5,-668.37 258,-658.37 254.5,-668.37 261.5,-668.37"/>
</g>
<!-- id2 -->
<g id="node15" class="node">
<title>id2</title>
<polygon fill="lightgreen" stroke="black" points="316,-598 200,-598 200,-556 316,-556 316,-598"/>
<text text-anchor="middle" x="258" y="-573.6" font-family="Times,serif" font-size="13.00">Identity Block 2</text>
</g>
<!-- id1&#45;&gt;id2 -->
<g id="edge13" class="edge">
<title>id1&#45;&gt;id2</title>
<path fill="none" stroke="black" d="M258,-615.71C258,-613.34 258,-610.89 258,-608.42"/>
<polygon fill="black" stroke="black" points="261.5,-608.37 258,-598.37 254.5,-608.37 261.5,-608.37"/>
</g>
</g>
</svg>
