<?xml version="1.0" encoding="UTF-8" standalone="no"?>
<!DOCTYPE svg PUBLIC "-//W3C//DTD SVG 1.1//EN"
 "http://www.w3.org/Graphics/SVG/1.1/DTD/svg11.dtd">
<!-- Generated by graphviz version 2.43.0 (0)
 -->
<!-- Title: %3 Pages: 1 -->
<svg width="252pt" height="604pt"
 viewBox="0.00 0.00 252.00 604.33" xmlns="http://www.w3.org/2000/svg" xmlns:xlink="http://www.w3.org/1999/xlink">
<g id="graph0" class="graph" transform="scale(0.78 0.78) rotate(0) translate(4 773)">
<title>%3</title>
<polygon fill="white" stroke="transparent" points="-4,4 -4,-773 320,-773 320,4 -4,4"/>
<g id="clust1" class="cluster">
<title>cluster_final_model</title>
<polygon fill="lightblue" stroke="lightblue" points="8,-8 8,-761 166,-761 166,-8 8,-8"/>
<text text-anchor="middle" x="87" y="-745.8" font-family="Times,serif" font-size="14.00">FINAL MODEL</text>
</g>
<g id="clust2" class="cluster">
<title>cluster_resblock</title>
<polygon fill="lightgrey" stroke="lightgrey" points="174,-557 174,-761 308,-761 308,-557 174,-557"/>
<text text-anchor="middle" x="241" y="-745.8" font-family="Times,serif" font-size="14.00">RES&#45;BLOCK</text>
</g>
<!-- input -->
<g id="node1" class="node">
<title>input</title>
<polygon fill="none" stroke="black" points="114,-730 60,-730 60,-687 114,-687 114,-730"/>
<text text-anchor="middle" x="87" y="-704.8" font-family="Times,serif" font-size="14.00">INPUT</text>
</g>
<!-- zeropad -->
<g id="node2" class="node">
<title>zeropad</title>
<polygon fill="none" stroke="black" points="130.5,-669 43.5,-669 43.5,-626 130.5,-626 130.5,-669"/>
<text text-anchor="middle" x="87" y="-643.8" font-family="Times,serif" font-size="14.00">Zero padding</text>
</g>
<!-- input&#45;&gt;zeropad -->
<g id="edge1" class="edge">
<title>input&#45;&gt;zeropad</title>
<path fill="none" stroke="black" d="M87,-686.86C87,-684.45 87,-681.96 87,-679.44"/>
<polygon fill="black" stroke="black" points="90.5,-679.22 87,-669.22 83.5,-679.22 90.5,-679.22"/>
</g>
<!-- conv2d -->
<g id="node3" class="node">
<title>conv2d</title>
<polygon fill="none" stroke="black" points="117,-608 57,-608 57,-565 117,-565 117,-608"/>
<text text-anchor="middle" x="87" y="-582.8" font-family="Times,serif" font-size="14.00">Conv2D</text>
</g>
<!-- zeropad&#45;&gt;conv2d -->
<g id="edge2" class="edge">
<title>zeropad&#45;&gt;conv2d</title>
<path fill="none" stroke="black" d="M87,-625.86C87,-623.45 87,-620.96 87,-618.44"/>
<polygon fill="black" stroke="black" points="90.5,-618.22 87,-608.22 83.5,-618.22 90.5,-618.22"/>
</g>
<!-- bn_relu -->
<g id="node4" class="node">
<title>bn_relu</title>
<polygon fill="none" stroke="black" points="146.5,-547 27.5,-547 27.5,-504 146.5,-504 146.5,-547"/>
<text text-anchor="middle" x="87" y="-521.8" font-family="Times,serif" font-size="14.00">BatchNorm, ReLU</text>
</g>
<!-- conv2d&#45;&gt;bn_relu -->
<g id="edge3" class="edge">
<title>conv2d&#45;&gt;bn_relu</title>
<path fill="none" stroke="black" d="M87,-564.86C87,-562.45 87,-559.96 87,-557.44"/>
<polygon fill="black" stroke="black" points="90.5,-557.22 87,-547.22 83.5,-557.22 90.5,-557.22"/>
</g>
<!-- pool -->
<g id="node5" class="node">
<title>pool</title>
<polygon fill="none" stroke="black" points="127.5,-486 46.5,-486 46.5,-443 127.5,-443 127.5,-486"/>
<text text-anchor="middle" x="87" y="-460.8" font-family="Times,serif" font-size="14.00">MaxPool2D</text>
</g>
<!-- bn_relu&#45;&gt;pool -->
<g id="edge4" class="edge">
<title>bn_relu&#45;&gt;pool</title>
<path fill="none" stroke="black" d="M87,-503.86C87,-501.45 87,-498.96 87,-496.44"/>
<polygon fill="black" stroke="black" points="90.5,-496.22 87,-486.22 83.5,-496.22 90.5,-496.22"/>
</g>
<!-- Res1 -->
<g id="node6" class="node">
<title>Res1</title>
<polygon fill="lightgray" stroke="black" points="121.5,-425 52.5,-425 52.5,-382 121.5,-382 121.5,-425"/>
<text text-anchor="middle" x="87" y="-399.8" font-family="Times,serif" font-size="14.00">Res&#45;block</text>
</g>
<!-- pool&#45;&gt;Res1 -->
<g id="edge5" class="edge">
<title>pool&#45;&gt;Res1</title>
<path fill="none" stroke="black" d="M87,-442.86C87,-440.45 87,-437.96 87,-435.44"/>
<polygon fill="black" stroke="black" points="90.5,-435.22 87,-425.22 83.5,-435.22 90.5,-435.22"/>
</g>
<!-- Res2 -->
<g id="node7" class="node">
<title>Res2</title>
<polygon fill="lightgray" stroke="black" points="121.5,-364 52.5,-364 52.5,-321 121.5,-321 121.5,-364"/>
<text text-anchor="middle" x="87" y="-338.8" font-family="Times,serif" font-size="14.00">Res&#45;block</text>
</g>
<!-- Res1&#45;&gt;Res2 -->
<g id="edge6" class="edge">
<title>Res1&#45;&gt;Res2</title>
<path fill="none" stroke="black" d="M87,-381.86C87,-379.45 87,-376.96 87,-374.44"/>
<polygon fill="black" stroke="black" points="90.5,-374.22 87,-364.22 83.5,-374.22 90.5,-374.22"/>
</g>
<!-- Avgpool -->
<g id="node8" class="node">
<title>Avgpool</title>
<polygon fill="none" stroke="black" points="146,-303 28,-303 28,-260 146,-260 146,-303"/>
<text text-anchor="middle" x="87" y="-277.8" font-family="Times,serif" font-size="14.00">AveragePooling2D</text>
</g>
<!-- Res2&#45;&gt;Avgpool -->
<g id="edge7" class="edge">
<title>Res2&#45;&gt;Avgpool</title>
<path fill="none" stroke="black" d="M87,-320.86C87,-318.45 87,-315.96 87,-313.44"/>
<polygon fill="black" stroke="black" points="90.5,-313.22 87,-303.22 83.5,-313.22 90.5,-313.22"/>
</g>
<!-- flatten -->
<g id="node9" class="node">
<title>flatten</title>
<polygon fill="none" stroke="black" points="117.5,-242 56.5,-242 56.5,-199 117.5,-199 117.5,-242"/>
<text text-anchor="middle" x="87" y="-216.8" font-family="Times,serif" font-size="14.00">Flatten()</text>
</g>
<!-- Avgpool&#45;&gt;flatten -->
<g id="edge8" class="edge">
<title>Avgpool&#45;&gt;flatten</title>
<path fill="none" stroke="black" d="M87,-259.86C87,-257.45 87,-254.96 87,-252.44"/>
<polygon fill="black" stroke="black" points="90.5,-252.22 87,-242.22 83.5,-252.22 90.5,-252.22"/>
</g>
<!-- dense1 -->
<g id="node10" class="node">
<title>dense1</title>
<polygon fill="none" stroke="black" points="157.5,-181 16.5,-181 16.5,-138 157.5,-138 157.5,-181"/>
<text text-anchor="middle" x="87" y="-155.8" font-family="Times,serif" font-size="14.00">Dense, ReLU, Dropout</text>
</g>
<!-- flatten&#45;&gt;dense1 -->
<g id="edge9" class="edge">
<title>flatten&#45;&gt;dense1</title>
<path fill="none" stroke="black" d="M87,-198.86C87,-196.45 87,-193.96 87,-191.44"/>
<polygon fill="black" stroke="black" points="90.5,-191.22 87,-181.22 83.5,-191.22 90.5,-191.22"/>
</g>
<!-- dense2 -->
<g id="node11" class="node">
<title>dense2</title>
<polygon fill="none" stroke="black" points="157.5,-120 16.5,-120 16.5,-77 157.5,-77 157.5,-120"/>
<text text-anchor="middle" x="87" y="-94.8" font-family="Times,serif" font-size="14.00">Dense, ReLU, Dropout</text>
</g>
<!-- dense1&#45;&gt;dense2 -->
<g id="edge10" class="edge">
<title>dense1&#45;&gt;dense2</title>
<path fill="none" stroke="black" d="M87,-137.86C87,-135.45 87,-132.96 87,-130.44"/>
<polygon fill="black" stroke="black" points="90.5,-130.22 87,-120.22 83.5,-130.22 90.5,-130.22"/>
</g>
<!-- output -->
<g id="node12" class="node">
<title>output</title>
<polygon fill="none" stroke="black" points="121,-59 53,-59 53,-16 121,-16 121,-59"/>
<text text-anchor="middle" x="87" y="-33.8" font-family="Times,serif" font-size="14.00">OUTPUT</text>
</g>
<!-- dense2&#45;&gt;output -->
<g id="edge11" class="edge">
<title>dense2&#45;&gt;output</title>
<path fill="none" stroke="black" d="M87,-76.86C87,-74.45 87,-71.96 87,-69.44"/>
<polygon fill="black" stroke="black" points="90.5,-69.22 87,-59.22 83.5,-69.22 90.5,-69.22"/>
</g>
<!-- conv -->
<g id="node13" class="node">
<title>conv</title>
<polygon fill="lightpink" stroke="black" points="300,-730 182,-730 182,-687 300,-687 300,-730"/>
<text text-anchor="middle" x="241" y="-704.8" font-family="Times,serif" font-size="14.00">Convolution Block</text>
</g>
<!-- id1 -->
<g id="node14" class="node">
<title>id1</title>
<polygon fill="lightgreen" stroke="black" points="292.5,-669 189.5,-669 189.5,-626 292.5,-626 292.5,-669"/>
<text text-anchor="middle" x="241" y="-643.8" font-family="Times,serif" font-size="14.00">Identity Block 1</text>
</g>
<!-- conv&#45;&gt;id1 -->
<g id="edge12" class="edge">
<title>conv&#45;&gt;id1</title>
<path fill="none" stroke="black" d="M241,-686.86C241,-684.45 241,-681.96 241,-679.44"/>
<polygon fill="black" stroke="black" points="244.5,-679.22 241,-669.22 237.5,-679.22 244.5,-679.22"/>
</g>
<!-- id2 -->
<g id="node15" class="node">
<title>id2</title>
<polygon fill="lightgreen" stroke="black" points="292.5,-608 189.5,-608 189.5,-565 292.5,-565 292.5,-608"/>
<text text-anchor="middle" x="241" y="-582.8" font-family="Times,serif" font-size="14.00">Identity Block 2</text>
</g>
<!-- id1&#45;&gt;id2 -->
<g id="edge13" class="edge">
<title>id1&#45;&gt;id2</title>
<path fill="none" stroke="black" d="M241,-625.86C241,-623.45 241,-620.96 241,-618.44"/>
<polygon fill="black" stroke="black" points="244.5,-618.22 241,-608.22 237.5,-618.22 244.5,-618.22"/>
</g>
</g>
</svg>
