<?xml version="1.0" encoding="UTF-8" standalone="no"?>
<!DOCTYPE svg PUBLIC "-//W3C//DTD SVG 1.1//EN"
 "http://www.w3.org/Graphics/SVG/1.1/DTD/svg11.dtd">
<!-- Generated by graphviz version 2.43.0 (0)
 -->
<!-- Title: %3 Pages: 1 -->
<svg width="252pt" height="586pt"
 viewBox="0.00 0.00 252.00 585.67" xmlns="http://www.w3.org/2000/svg" xmlns:xlink="http://www.w3.org/1999/xlink">
<g id="graph0" class="graph" transform="scale(0.78 0.78) rotate(0) translate(4 749)">
<title>%3</title>
<polygon fill="white" stroke="transparent" points="-4,4 -4,-749 320,-749 320,4 -4,4"/>
<g id="clust1" class="cluster">
<title>cluster_final_model</title>
<polygon fill="lightblue" stroke="lightblue" points="8,-8 8,-737 164,-737 164,-8 8,-8"/>
<text text-anchor="middle" x="86" y="-721.8" font-family="Times,serif" font-size="14.00">Keypoint model</text>
</g>
<g id="clust2" class="cluster">
<title>cluster_resblock</title>
<polygon fill="lightgrey" stroke="lightgrey" points="172,-539 172,-737 308,-737 308,-539 172,-539"/>
<text text-anchor="middle" x="240" y="-721.8" font-family="Times,serif" font-size="14.00">Res&#45;block</text>
</g>
<!-- input -->
<g id="node1" class="node">
<title>input</title>
<polygon fill="none" stroke="black" points="118.5,-706 53.5,-706 53.5,-665 118.5,-665 118.5,-706"/>
<text text-anchor="middle" x="86" y="-682.4" font-family="Times,serif" font-size="12.00">INPUT</text>
</g>
<!-- zeropad -->
<g id="node2" class="node">
<title>zeropad</title>
<polygon fill="none" stroke="black" points="132,-647 40,-647 40,-606 132,-606 132,-647"/>
<text text-anchor="middle" x="86" y="-623.4" font-family="Times,serif" font-size="12.00">Zero padding</text>
</g>
<!-- input&#45;&gt;zeropad -->
<g id="edge1" class="edge">
<title>input&#45;&gt;zeropad</title>
<path fill="none" stroke="black" d="M86,-664.88C86,-662.49 86,-660.01 86,-657.51"/>
<polygon fill="black" stroke="black" points="89.5,-657.35 86,-647.35 82.5,-657.35 89.5,-657.35"/>
</g>
<!-- conv2d -->
<g id="node3" class="node">
<title>conv2d</title>
<polygon fill="none" stroke="black" points="121,-588 51,-588 51,-547 121,-547 121,-588"/>
<text text-anchor="middle" x="86" y="-564.4" font-family="Times,serif" font-size="12.00">Conv2D</text>
</g>
<!-- zeropad&#45;&gt;conv2d -->
<g id="edge2" class="edge">
<title>zeropad&#45;&gt;conv2d</title>
<path fill="none" stroke="black" d="M86,-605.88C86,-603.49 86,-601.01 86,-598.51"/>
<polygon fill="black" stroke="black" points="89.5,-598.35 86,-588.35 82.5,-598.35 89.5,-598.35"/>
</g>
<!-- bn_relu -->
<g id="node4" class="node">
<title>bn_relu</title>
<polygon fill="none" stroke="black" points="146,-529 26,-529 26,-488 146,-488 146,-529"/>
<text text-anchor="middle" x="86" y="-505.4" font-family="Times,serif" font-size="12.00">BatchNorm, ReLU</text>
</g>
<!-- conv2d&#45;&gt;bn_relu -->
<g id="edge3" class="edge">
<title>conv2d&#45;&gt;bn_relu</title>
<path fill="none" stroke="black" d="M86,-546.88C86,-544.49 86,-542.01 86,-539.51"/>
<polygon fill="black" stroke="black" points="89.5,-539.35 86,-529.35 82.5,-539.35 89.5,-539.35"/>
</g>
<!-- pool -->
<g id="node5" class="node">
<title>pool</title>
<polygon fill="none" stroke="black" points="129.5,-470 42.5,-470 42.5,-429 129.5,-429 129.5,-470"/>
<text text-anchor="middle" x="86" y="-446.4" font-family="Times,serif" font-size="12.00">MaxPool2D</text>
</g>
<!-- bn_relu&#45;&gt;pool -->
<g id="edge4" class="edge">
<title>bn_relu&#45;&gt;pool</title>
<path fill="none" stroke="black" d="M86,-487.88C86,-485.49 86,-483.01 86,-480.51"/>
<polygon fill="black" stroke="black" points="89.5,-480.35 86,-470.35 82.5,-480.35 89.5,-480.35"/>
</g>
<!-- Res1 -->
<g id="node6" class="node">
<title>Res1</title>
<polygon fill="lightgray" stroke="black" points="124.5,-411 47.5,-411 47.5,-370 124.5,-370 124.5,-411"/>
<text text-anchor="middle" x="86" y="-387.4" font-family="Times,serif" font-size="12.00">Res&#45;block</text>
</g>
<!-- pool&#45;&gt;Res1 -->
<g id="edge5" class="edge">
<title>pool&#45;&gt;Res1</title>
<path fill="none" stroke="black" d="M86,-428.88C86,-426.49 86,-424.01 86,-421.51"/>
<polygon fill="black" stroke="black" points="89.5,-421.35 86,-411.35 82.5,-421.35 89.5,-421.35"/>
</g>
<!-- Res2 -->
<g id="node7" class="node">
<title>Res2</title>
<polygon fill="lightgray" stroke="black" points="124.5,-352 47.5,-352 47.5,-311 124.5,-311 124.5,-352"/>
<text text-anchor="middle" x="86" y="-328.4" font-family="Times,serif" font-size="12.00">Res&#45;block</text>
</g>
<!-- Res1&#45;&gt;Res2 -->
<g id="edge6" class="edge">
<title>Res1&#45;&gt;Res2</title>
<path fill="none" stroke="black" d="M86,-369.88C86,-367.49 86,-365.01 86,-362.51"/>
<polygon fill="black" stroke="black" points="89.5,-362.35 86,-352.35 82.5,-362.35 89.5,-362.35"/>
</g>
<!-- Avgpool -->
<g id="node8" class="node">
<title>Avgpool</title>
<polygon fill="none" stroke="black" points="145.5,-293 26.5,-293 26.5,-252 145.5,-252 145.5,-293"/>
<text text-anchor="middle" x="86" y="-269.4" font-family="Times,serif" font-size="12.00">AveragePooling2D</text>
</g>
<!-- Res2&#45;&gt;Avgpool -->
<g id="edge7" class="edge">
<title>Res2&#45;&gt;Avgpool</title>
<path fill="none" stroke="black" d="M86,-310.88C86,-308.49 86,-306.01 86,-303.51"/>
<polygon fill="black" stroke="black" points="89.5,-303.35 86,-293.35 82.5,-303.35 89.5,-303.35"/>
</g>
<!-- flatten -->
<g id="node9" class="node">
<title>flatten</title>
<polygon fill="none" stroke="black" points="120,-234 52,-234 52,-193 120,-193 120,-234"/>
<text text-anchor="middle" x="86" y="-210.4" font-family="Times,serif" font-size="12.00">Flatten()</text>
</g>
<!-- Avgpool&#45;&gt;flatten -->
<g id="edge8" class="edge">
<title>Avgpool&#45;&gt;flatten</title>
<path fill="none" stroke="black" d="M86,-251.88C86,-249.49 86,-247.01 86,-244.51"/>
<polygon fill="black" stroke="black" points="89.5,-244.35 86,-234.35 82.5,-244.35 89.5,-244.35"/>
</g>
<!-- dense1 -->
<g id="node10" class="node">
<title>dense1</title>
<polygon fill="none" stroke="black" points="156,-175 16,-175 16,-134 156,-134 156,-175"/>
<text text-anchor="middle" x="86" y="-151.4" font-family="Times,serif" font-size="12.00">Dense, ReLU, Dropout</text>
</g>
<!-- flatten&#45;&gt;dense1 -->
<g id="edge9" class="edge">
<title>flatten&#45;&gt;dense1</title>
<path fill="none" stroke="black" d="M86,-192.88C86,-190.49 86,-188.01 86,-185.51"/>
<polygon fill="black" stroke="black" points="89.5,-185.35 86,-175.35 82.5,-185.35 89.5,-185.35"/>
</g>
<!-- dense2 -->
<g id="node11" class="node">
<title>dense2</title>
<polygon fill="none" stroke="black" points="156,-116 16,-116 16,-75 156,-75 156,-116"/>
<text text-anchor="middle" x="86" y="-92.4" font-family="Times,serif" font-size="12.00">Dense, ReLU, Dropout</text>
</g>
<!-- dense1&#45;&gt;dense2 -->
<g id="edge10" class="edge">
<title>dense1&#45;&gt;dense2</title>
<path fill="none" stroke="black" d="M86,-133.88C86,-131.49 86,-129.01 86,-126.51"/>
<polygon fill="black" stroke="black" points="89.5,-126.35 86,-116.35 82.5,-126.35 89.5,-126.35"/>
</g>
<!-- output -->
<g id="node12" class="node">
<title>output</title>
<polygon fill="none" stroke="black" points="124.5,-57 47.5,-57 47.5,-16 124.5,-16 124.5,-57"/>
<text text-anchor="middle" x="86" y="-33.4" font-family="Times,serif" font-size="12.00">OUTPUT</text>
</g>
<!-- dense2&#45;&gt;output -->
<g id="edge11" class="edge">
<title>dense2&#45;&gt;output</title>
<path fill="none" stroke="black" d="M86,-74.88C86,-72.49 86,-70.01 86,-67.51"/>
<polygon fill="black" stroke="black" points="89.5,-67.35 86,-57.35 82.5,-67.35 89.5,-67.35"/>
</g>
<!-- conv -->
<g id="node13" class="node">
<title>conv</title>
<polygon fill="lightpink" stroke="black" points="299.5,-706 180.5,-706 180.5,-665 299.5,-665 299.5,-706"/>
<text text-anchor="middle" x="240" y="-682.4" font-family="Times,serif" font-size="12.00">Convolution Block</text>
</g>
<!-- id1 -->
<g id="node14" class="node">
<title>id1</title>
<polygon fill="lightgreen" stroke="black" points="292.5,-647 187.5,-647 187.5,-606 292.5,-606 292.5,-647"/>
<text text-anchor="middle" x="240" y="-623.4" font-family="Times,serif" font-size="12.00">Identity Block 1</text>
</g>
<!-- conv&#45;&gt;id1 -->
<g id="edge12" class="edge">
<title>conv&#45;&gt;id1</title>
<path fill="none" stroke="black" d="M240,-664.88C240,-662.49 240,-660.01 240,-657.51"/>
<polygon fill="black" stroke="black" points="243.5,-657.35 240,-647.35 236.5,-657.35 243.5,-657.35"/>
</g>
<!-- id2 -->
<g id="node15" class="node">
<title>id2</title>
<polygon fill="lightgreen" stroke="black" points="292.5,-588 187.5,-588 187.5,-547 292.5,-547 292.5,-588"/>
<text text-anchor="middle" x="240" y="-564.4" font-family="Times,serif" font-size="12.00">Identity Block 2</text>
</g>
<!-- id1&#45;&gt;id2 -->
<g id="edge13" class="edge">
<title>id1&#45;&gt;id2</title>
<path fill="none" stroke="black" d="M240,-605.88C240,-603.49 240,-601.01 240,-598.51"/>
<polygon fill="black" stroke="black" points="243.5,-598.35 240,-588.35 236.5,-598.35 243.5,-598.35"/>
</g>
</g>
</svg>
