<?xml version="1.0" encoding="UTF-8" standalone="no"?>
<!DOCTYPE svg PUBLIC "-//W3C//DTD SVG 1.1//EN"
 "http://www.w3.org/Graphics/SVG/1.1/DTD/svg11.dtd">
<!-- Generated by graphviz version 2.43.0 (0)
 -->
<!-- Title: %3 Pages: 1 -->
<svg width="324pt" height="468pt"
 viewBox="0.00 0.00 324.00 467.92" xmlns="http://www.w3.org/2000/svg" xmlns:xlink="http://www.w3.org/1999/xlink">
<g id="graph0" class="graph" transform="scale(0.75 0.75) rotate(0) translate(4 617)">
<title>%3</title>
<polygon fill="white" stroke="transparent" points="-4,4 -4,-617 426,-617 426,4 -4,4"/>
<g id="clust1" class="cluster">
<title>cluster_convblock</title>
<polygon fill="lightpink" stroke="lightpink" points="8,-8 8,-605 240,-605 240,-8 8,-8"/>
<text text-anchor="middle" x="124" y="-589.8" font-family="Times,serif" font-size="14.00">CONVOLUTION BLOCK</text>
</g>
<g id="clust2" class="cluster">
<title>cluster_idblock</title>
<polygon fill="lightgreen" stroke="lightgreen" points="248,-66 248,-605 414,-605 414,-66 248,-66"/>
<text text-anchor="middle" x="331" y="-589.8" font-family="Times,serif" font-size="14.00">IDENTITY BLOCK</text>
</g>
<!-- conv_in -->
<g id="node1" class="node">
<title>conv_in</title>
<polygon fill="none" stroke="black" points="105,-574 49,-574 49,-538 105,-538 105,-574"/>
<text text-anchor="middle" x="77" y="-552.3" font-family="Times,serif" font-size="14.00">INPUT</text>
</g>
<!-- conv2d1 -->
<g id="node2" class="node">
<title>conv2d1</title>
<polygon fill="none" stroke="black" points="108,-516 46,-516 46,-480 108,-480 108,-516"/>
<text text-anchor="middle" x="77" y="-494.3" font-family="Times,serif" font-size="14.00">Conv2D</text>
</g>
<!-- conv_in&#45;&gt;conv2d1 -->
<g id="edge1" class="edge">
<title>conv_in&#45;&gt;conv2d1</title>
<path fill="none" stroke="black" d="M77,-537.97C77,-537.97 77,-526.22 77,-526.22"/>
<polygon fill="black" stroke="black" points="80.5,-526.22 77,-516.22 73.5,-526.22 80.5,-526.22"/>
</g>
<!-- conv_short -->
<g id="node11" class="node">
<title>conv_short</title>
<polygon fill="none" stroke="black" points="221,-516 159,-516 159,-480 221,-480 221,-516"/>
<text text-anchor="middle" x="190" y="-494.3" font-family="Times,serif" font-size="14.00">Conv2D</text>
</g>
<!-- conv_in&#45;&gt;conv_short -->
<g id="edge9" class="edge">
<title>conv_in&#45;&gt;conv_short</title>
<path fill="none" stroke="red" stroke-dasharray="5,2" d="M105.22,-556C138.69,-556 190,-556 190,-556 190,-556 190,-526.03 190,-526.03"/>
<polygon fill="red" stroke="red" points="193.5,-526.03 190,-516.03 186.5,-526.03 193.5,-526.03"/>
</g>
<!-- maxpool1 -->
<g id="node3" class="node">
<title>maxpool1</title>
<polygon fill="none" stroke="black" points="118.5,-458 35.5,-458 35.5,-422 118.5,-422 118.5,-458"/>
<text text-anchor="middle" x="77" y="-436.3" font-family="Times,serif" font-size="14.00">MaxPool2D</text>
</g>
<!-- conv2d1&#45;&gt;maxpool1 -->
<g id="edge2" class="edge">
<title>conv2d1&#45;&gt;maxpool1</title>
<path fill="none" stroke="black" d="M77,-479.97C77,-479.97 77,-468.22 77,-468.22"/>
<polygon fill="black" stroke="black" points="80.5,-468.22 77,-458.22 73.5,-468.22 80.5,-468.22"/>
</g>
<!-- bn_relu1 -->
<g id="node4" class="node">
<title>bn_relu1</title>
<polygon fill="none" stroke="black" points="137.5,-400 16.5,-400 16.5,-364 137.5,-364 137.5,-400"/>
<text text-anchor="middle" x="77" y="-378.3" font-family="Times,serif" font-size="14.00">BatchNorm, ReLU</text>
</g>
<!-- maxpool1&#45;&gt;bn_relu1 -->
<g id="edge3" class="edge">
<title>maxpool1&#45;&gt;bn_relu1</title>
<path fill="none" stroke="black" d="M77,-421.97C77,-421.97 77,-410.22 77,-410.22"/>
<polygon fill="black" stroke="black" points="80.5,-410.22 77,-400.22 73.5,-410.22 80.5,-410.22"/>
</g>
<!-- conv2d2 -->
<g id="node5" class="node">
<title>conv2d2</title>
<polygon fill="none" stroke="black" points="150,-342 16,-342 16,-306 150,-306 150,-342"/>
<text text-anchor="middle" x="83" y="-320.3" font-family="Times,serif" font-size="14.00">Conv2D (kernel 3×3)</text>
</g>
<!-- bn_relu1&#45;&gt;conv2d2 -->
<g id="edge4" class="edge">
<title>bn_relu1&#45;&gt;conv2d2</title>
<path fill="none" stroke="black" d="M77,-363.97C77,-363.97 77,-352.22 77,-352.22"/>
<polygon fill="black" stroke="black" points="80.5,-352.22 77,-342.22 73.5,-352.22 80.5,-352.22"/>
</g>
<!-- bn_relu2 -->
<g id="node6" class="node">
<title>bn_relu2</title>
<polygon fill="none" stroke="black" points="143.5,-284 22.5,-284 22.5,-248 143.5,-248 143.5,-284"/>
<text text-anchor="middle" x="83" y="-262.3" font-family="Times,serif" font-size="14.00">BatchNorm, ReLU</text>
</g>
<!-- conv2d2&#45;&gt;bn_relu2 -->
<g id="edge5" class="edge">
<title>conv2d2&#45;&gt;bn_relu2</title>
<path fill="none" stroke="black" d="M83,-305.97C83,-305.97 83,-294.22 83,-294.22"/>
<polygon fill="black" stroke="black" points="86.5,-294.22 83,-284.22 79.5,-294.22 86.5,-294.22"/>
</g>
<!-- conv2d3 -->
<g id="node7" class="node">
<title>conv2d3</title>
<polygon fill="none" stroke="black" points="114,-226 52,-226 52,-190 114,-190 114,-226"/>
<text text-anchor="middle" x="83" y="-204.3" font-family="Times,serif" font-size="14.00">Conv2D</text>
</g>
<!-- bn_relu2&#45;&gt;conv2d3 -->
<g id="edge6" class="edge">
<title>bn_relu2&#45;&gt;conv2d3</title>
<path fill="none" stroke="black" d="M83,-247.97C83,-247.97 83,-236.22 83,-236.22"/>
<polygon fill="black" stroke="black" points="86.5,-236.22 83,-226.22 79.5,-236.22 86.5,-236.22"/>
</g>
<!-- bn3 -->
<g id="node8" class="node">
<title>bn3</title>
<polygon fill="none" stroke="black" points="123,-168 43,-168 43,-132 123,-132 123,-168"/>
<text text-anchor="middle" x="83" y="-146.3" font-family="Times,serif" font-size="14.00">BatchNorm</text>
</g>
<!-- conv2d3&#45;&gt;bn3 -->
<g id="edge7" class="edge">
<title>conv2d3&#45;&gt;bn3</title>
<path fill="none" stroke="black" d="M83,-189.97C83,-189.97 83,-178.22 83,-178.22"/>
<polygon fill="black" stroke="black" points="86.5,-178.22 83,-168.22 79.5,-178.22 86.5,-178.22"/>
</g>
<!-- add_conv -->
<g id="node9" class="node">
<title>add_conv</title>
<ellipse fill="none" stroke="black" cx="130" cy="-92" rx="18" ry="18"/>
<text text-anchor="middle" x="130" y="-88.3" font-family="Times,serif" font-size="14.00">+</text>
</g>
<!-- bn3&#45;&gt;add_conv -->
<g id="edge8" class="edge">
<title>bn3&#45;&gt;add_conv</title>
<path fill="none" stroke="black" d="M117.5,-131.97C117.5,-131.97 117.5,-115.23 117.5,-115.23"/>
<polygon fill="black" stroke="black" points="121,-115.23 117.5,-105.23 114,-115.23 121,-115.23"/>
</g>
<!-- relu_conv -->
<g id="node10" class="node">
<title>relu_conv</title>
<polygon fill="none" stroke="black" points="157,-52 103,-52 103,-16 157,-16 157,-52"/>
<text text-anchor="middle" x="130" y="-30.3" font-family="Times,serif" font-size="14.00">ReLU</text>
</g>
<!-- add_conv&#45;&gt;relu_conv -->
<g id="edge13" class="edge">
<title>add_conv&#45;&gt;relu_conv</title>
<path fill="none" stroke="black" d="M130,-73.97C130,-73.97 130,-62.22 130,-62.22"/>
<polygon fill="black" stroke="black" points="133.5,-62.22 130,-52.22 126.5,-62.22 133.5,-62.22"/>
</g>
<!-- maxpool2 -->
<g id="node12" class="node">
<title>maxpool2</title>
<polygon fill="none" stroke="black" points="231.5,-458 148.5,-458 148.5,-422 231.5,-422 231.5,-458"/>
<text text-anchor="middle" x="190" y="-436.3" font-family="Times,serif" font-size="14.00">MaxPool2D</text>
</g>
<!-- conv_short&#45;&gt;maxpool2 -->
<g id="edge10" class="edge">
<title>conv_short&#45;&gt;maxpool2</title>
<path fill="none" stroke="red" stroke-dasharray="5,2" d="M190,-479.97C190,-479.97 190,-468.22 190,-468.22"/>
<polygon fill="red" stroke="red" points="193.5,-468.22 190,-458.22 186.5,-468.22 193.5,-468.22"/>
</g>
<!-- bn_short -->
<g id="node13" class="node">
<title>bn_short</title>
<polygon fill="none" stroke="black" points="232,-400 152,-400 152,-364 232,-364 232,-400"/>
<text text-anchor="middle" x="192" y="-378.3" font-family="Times,serif" font-size="14.00">BatchNorm</text>
</g>
<!-- maxpool2&#45;&gt;bn_short -->
<g id="edge11" class="edge">
<title>maxpool2&#45;&gt;bn_short</title>
<path fill="none" stroke="red" stroke-dasharray="5,2" d="M191.75,-421.97C191.75,-421.97 191.75,-410.22 191.75,-410.22"/>
<polygon fill="red" stroke="red" points="195.25,-410.22 191.75,-400.22 188.25,-410.22 195.25,-410.22"/>
</g>
<!-- bn_short&#45;&gt;add_conv -->
<g id="edge12" class="edge">
<title>bn_short&#45;&gt;add_conv</title>
<path fill="none" stroke="red" stroke-dasharray="5,2" d="M194.5,-363.86C194.5,-300.37 194.5,-92 194.5,-92 194.5,-92 158.31,-92 158.31,-92"/>
<polygon fill="red" stroke="red" points="158.31,-88.5 148.31,-92 158.31,-95.5 158.31,-88.5"/>
</g>
<!-- id_in -->
<g id="node14" class="node">
<title>id_in</title>
<polygon fill="none" stroke="black" points="351,-574 295,-574 295,-538 351,-538 351,-574"/>
<text text-anchor="middle" x="323" y="-552.3" font-family="Times,serif" font-size="14.00">INPUT</text>
</g>
<!-- id_conv1 -->
<g id="node15" class="node">
<title>id_conv1</title>
<polygon fill="none" stroke="black" points="354,-516 292,-516 292,-480 354,-480 354,-516"/>
<text text-anchor="middle" x="323" y="-494.3" font-family="Times,serif" font-size="14.00">Conv2D</text>
</g>
<!-- id_in&#45;&gt;id_conv1 -->
<g id="edge14" class="edge">
<title>id_in&#45;&gt;id_conv1</title>
<path fill="none" stroke="black" d="M323,-537.97C323,-537.97 323,-526.22 323,-526.22"/>
<polygon fill="black" stroke="black" points="326.5,-526.22 323,-516.22 319.5,-526.22 326.5,-526.22"/>
</g>
<!-- add_id -->
<g id="node21" class="node">
<title>add_id</title>
<ellipse fill="none" stroke="black" cx="351" cy="-150" rx="18" ry="18"/>
<text text-anchor="middle" x="351" y="-146.3" font-family="Times,serif" font-size="14.00">+</text>
</g>
<!-- id_in&#45;&gt;add_id -->
<g id="edge21" class="edge">
<title>id_in&#45;&gt;add_id</title>
<path fill="none" stroke="red" stroke-dasharray="5,2" d="M351.3,-556C376.03,-556 408,-556 408,-556 408,-556 408,-150 408,-150 408,-150 379.04,-150 379.04,-150"/>
<polygon fill="red" stroke="red" points="379.04,-146.5 369.04,-150 379.04,-153.5 379.04,-146.5"/>
</g>
<!-- id_bn_relu1 -->
<g id="node16" class="node">
<title>id_bn_relu1</title>
<polygon fill="none" stroke="black" points="383.5,-458 262.5,-458 262.5,-422 383.5,-422 383.5,-458"/>
<text text-anchor="middle" x="323" y="-436.3" font-family="Times,serif" font-size="14.00">BatchNorm, ReLU</text>
</g>
<!-- id_conv1&#45;&gt;id_bn_relu1 -->
<g id="edge15" class="edge">
<title>id_conv1&#45;&gt;id_bn_relu1</title>
<path fill="none" stroke="black" d="M323,-479.97C323,-479.97 323,-468.22 323,-468.22"/>
<polygon fill="black" stroke="black" points="326.5,-468.22 323,-458.22 319.5,-468.22 326.5,-468.22"/>
</g>
<!-- id_conv2 -->
<g id="node17" class="node">
<title>id_conv2</title>
<polygon fill="none" stroke="black" points="390,-400 256,-400 256,-364 390,-364 390,-400"/>
<text text-anchor="middle" x="323" y="-378.3" font-family="Times,serif" font-size="14.00">Conv2D (kernel 3×3)</text>
</g>
<!-- id_bn_relu1&#45;&gt;id_conv2 -->
<g id="edge16" class="edge">
<title>id_bn_relu1&#45;&gt;id_conv2</title>
<path fill="none" stroke="black" d="M323,-421.97C323,-421.97 323,-410.22 323,-410.22"/>
<polygon fill="black" stroke="black" points="326.5,-410.22 323,-400.22 319.5,-410.22 326.5,-410.22"/>
</g>
<!-- id_bn_relu2 -->
<g id="node18" class="node">
<title>id_bn_relu2</title>
<polygon fill="none" stroke="black" points="383.5,-342 262.5,-342 262.5,-306 383.5,-306 383.5,-342"/>
<text text-anchor="middle" x="323" y="-320.3" font-family="Times,serif" font-size="14.00">BatchNorm, ReLU</text>
</g>
<!-- id_conv2&#45;&gt;id_bn_relu2 -->
<g id="edge17" class="edge">
<title>id_conv2&#45;&gt;id_bn_relu2</title>
<path fill="none" stroke="black" d="M323,-363.97C323,-363.97 323,-352.22 323,-352.22"/>
<polygon fill="black" stroke="black" points="326.5,-352.22 323,-342.22 319.5,-352.22 326.5,-352.22"/>
</g>
<!-- id_conv3 -->
<g id="node19" class="node">
<title>id_conv3</title>
<polygon fill="none" stroke="black" points="354,-284 292,-284 292,-248 354,-248 354,-284"/>
<text text-anchor="middle" x="323" y="-262.3" font-family="Times,serif" font-size="14.00">Conv2D</text>
</g>
<!-- id_bn_relu2&#45;&gt;id_conv3 -->
<g id="edge18" class="edge">
<title>id_bn_relu2&#45;&gt;id_conv3</title>
<path fill="none" stroke="black" d="M323,-305.97C323,-305.97 323,-294.22 323,-294.22"/>
<polygon fill="black" stroke="black" points="326.5,-294.22 323,-284.22 319.5,-294.22 326.5,-294.22"/>
</g>
<!-- id_bn3 -->
<g id="node20" class="node">
<title>id_bn3</title>
<polygon fill="none" stroke="black" points="363,-226 283,-226 283,-190 363,-190 363,-226"/>
<text text-anchor="middle" x="323" y="-204.3" font-family="Times,serif" font-size="14.00">BatchNorm</text>
</g>
<!-- id_conv3&#45;&gt;id_bn3 -->
<g id="edge19" class="edge">
<title>id_conv3&#45;&gt;id_bn3</title>
<path fill="none" stroke="black" d="M323,-247.97C323,-247.97 323,-236.22 323,-236.22"/>
<polygon fill="black" stroke="black" points="326.5,-236.22 323,-226.22 319.5,-236.22 326.5,-236.22"/>
</g>
<!-- id_bn3&#45;&gt;add_id -->
<g id="edge20" class="edge">
<title>id_bn3&#45;&gt;add_id</title>
<path fill="none" stroke="black" d="M348,-189.97C348,-189.97 348,-177.82 348,-177.82"/>
<polygon fill="black" stroke="black" points="351.5,-177.82 348,-167.82 344.5,-177.82 351.5,-177.82"/>
</g>
<!-- relu_id -->
<g id="node22" class="node">
<title>relu_id</title>
<polygon fill="none" stroke="black" points="378,-110 324,-110 324,-74 378,-74 378,-110"/>
<text text-anchor="middle" x="351" y="-88.3" font-family="Times,serif" font-size="14.00">ReLU</text>
</g>
<!-- add_id&#45;&gt;relu_id -->
<g id="edge22" class="edge">
<title>add_id&#45;&gt;relu_id</title>
<path fill="none" stroke="black" d="M351,-131.97C351,-131.97 351,-120.22 351,-120.22"/>
<polygon fill="black" stroke="black" points="354.5,-120.22 351,-110.22 347.5,-120.22 354.5,-120.22"/>
</g>
</g>
</svg>
