<?xml version="1.0" encoding="UTF-8" standalone="no"?>
<!DOCTYPE svg PUBLIC "-//W3C//DTD SVG 1.1//EN"
 "http://www.w3.org/Graphics/SVG/1.1/DTD/svg11.dtd">
<!-- Generated by graphviz version 2.43.0 (0)
 -->
<!-- Title: %3 Pages: 1 -->
<svg width="324pt" height="595pt"
 viewBox="0.00 0.00 324.00 595.28" xmlns="http://www.w3.org/2000/svg" xmlns:xlink="http://www.w3.org/1999/xlink">
<g id="graph0" class="graph" transform="scale(0.68 0.68) rotate(0) translate(4 874.22)">
<title>%3</title>
<polygon fill="white" stroke="transparent" points="-4,4 -4,-874.22 474,-874.22 474,4 -4,4"/>
<g id="clust1" class="cluster">
<title>cluster_convblock</title>
<polygon fill="lightpink" stroke="lightpink" points="8,-8 8,-862.22 274,-862.22 274,-8 8,-8"/>
<text text-anchor="middle" x="141" y="-847.02" font-family="Times,serif" font-size="14.00">CONVOLUTION BLOCK</text>
</g>
<g id="clust2" class="cluster">
<title>cluster_idblock</title>
<polygon fill="lightgreen" stroke="lightgreen" points="282,-98.81 282,-862.22 462,-862.22 462,-98.81 282,-98.81"/>
<text text-anchor="middle" x="372" y="-847.02" font-family="Times,serif" font-size="14.00">IDENTITY BLOCK</text>
</g>
<!-- conv_in -->
<g id="node1" class="node">
<title>conv_in</title>
<polygon fill="lightgrey" stroke="black" points="124.5,-831.22 43.5,-831.22 43.5,-774.22 124.5,-774.22 124.5,-831.22"/>
<text text-anchor="middle" x="84" y="-799.62" font-family="Times,serif" font-size="12.00">INPUT</text>
</g>
<!-- conv2d1 -->
<g id="node2" class="node">
<title>conv2d1</title>
<polygon fill="lightgrey" stroke="black" points="127,-752.22 41,-752.22 41,-695.22 127,-695.22 127,-752.22"/>
<text text-anchor="middle" x="84" y="-720.62" font-family="Times,serif" font-size="12.00">Conv2D</text>
</g>
<!-- conv_in&#45;&gt;conv2d1 -->
<g id="edge1" class="edge">
<title>conv_in&#45;&gt;conv2d1</title>
<path fill="none" stroke="black" d="M84,-774.2C84,-774.2 84,-762.46 84,-762.46"/>
<polygon fill="black" stroke="black" points="87.5,-762.46 84,-752.46 80.5,-762.46 87.5,-762.46"/>
</g>
<!-- conv_short -->
<g id="node11" class="node">
<title>conv_short</title>
<polygon fill="lightgrey" stroke="black" points="257,-752.22 171,-752.22 171,-695.22 257,-695.22 257,-752.22"/>
<text text-anchor="middle" x="214" y="-720.62" font-family="Times,serif" font-size="12.00">Conv2D</text>
</g>
<!-- conv_in&#45;&gt;conv_short -->
<g id="edge9" class="edge">
<title>conv_in&#45;&gt;conv_short</title>
<path fill="none" stroke="red" stroke-dasharray="5,2" d="M124.78,-802C162.9,-802 214,-802 214,-802 214,-802 214,-762.42 214,-762.42"/>
<polygon fill="red" stroke="red" points="217.5,-762.42 214,-752.42 210.5,-762.42 217.5,-762.42"/>
</g>
<!-- maxpool1 -->
<g id="node3" class="node">
<title>maxpool1</title>
<polygon fill="lightgrey" stroke="black" points="135.5,-673.22 32.5,-673.22 32.5,-616.22 135.5,-616.22 135.5,-673.22"/>
<text text-anchor="middle" x="84" y="-641.62" font-family="Times,serif" font-size="12.00">MaxPool2D</text>
</g>
<!-- conv2d1&#45;&gt;maxpool1 -->
<g id="edge2" class="edge">
<title>conv2d1&#45;&gt;maxpool1</title>
<path fill="none" stroke="black" d="M84,-695.2C84,-695.2 84,-683.46 84,-683.46"/>
<polygon fill="black" stroke="black" points="87.5,-683.46 84,-673.46 80.5,-683.46 87.5,-683.46"/>
</g>
<!-- bn_relu1 -->
<g id="node4" class="node">
<title>bn_relu1</title>
<polygon fill="lightgrey" stroke="black" points="152,-594.22 16,-594.22 16,-537.22 152,-537.22 152,-594.22"/>
<text text-anchor="middle" x="84" y="-562.62" font-family="Times,serif" font-size="12.00">BatchNorm, ReLU</text>
</g>
<!-- maxpool1&#45;&gt;bn_relu1 -->
<g id="edge3" class="edge">
<title>maxpool1&#45;&gt;bn_relu1</title>
<path fill="none" stroke="black" d="M84,-616.2C84,-616.2 84,-604.46 84,-604.46"/>
<polygon fill="black" stroke="black" points="87.5,-604.46 84,-594.46 80.5,-604.46 87.5,-604.46"/>
</g>
<!-- conv2d2 -->
<g id="node5" class="node">
<title>conv2d2</title>
<polygon fill="lightgrey" stroke="black" points="163.5,-515.22 16.5,-515.22 16.5,-458.22 163.5,-458.22 163.5,-515.22"/>
<text text-anchor="middle" x="90" y="-483.62" font-family="Times,serif" font-size="12.00">Conv2D (kernel 3×3)</text>
</g>
<!-- bn_relu1&#45;&gt;conv2d2 -->
<g id="edge4" class="edge">
<title>bn_relu1&#45;&gt;conv2d2</title>
<path fill="none" stroke="black" d="M84.25,-537.2C84.25,-537.2 84.25,-525.46 84.25,-525.46"/>
<polygon fill="black" stroke="black" points="87.75,-525.46 84.25,-515.46 80.75,-525.46 87.75,-525.46"/>
</g>
<!-- bn_relu2 -->
<g id="node6" class="node">
<title>bn_relu2</title>
<polygon fill="lightgrey" stroke="black" points="158,-436.22 22,-436.22 22,-379.22 158,-379.22 158,-436.22"/>
<text text-anchor="middle" x="90" y="-404.62" font-family="Times,serif" font-size="12.00">BatchNorm, ReLU</text>
</g>
<!-- conv2d2&#45;&gt;bn_relu2 -->
<g id="edge5" class="edge">
<title>conv2d2&#45;&gt;bn_relu2</title>
<path fill="none" stroke="black" d="M90,-458.2C90,-458.2 90,-446.46 90,-446.46"/>
<polygon fill="black" stroke="black" points="93.5,-446.46 90,-436.46 86.5,-446.46 93.5,-446.46"/>
</g>
<!-- conv2d3 -->
<g id="node7" class="node">
<title>conv2d3</title>
<polygon fill="lightgrey" stroke="black" points="133,-357.22 47,-357.22 47,-300.22 133,-300.22 133,-357.22"/>
<text text-anchor="middle" x="90" y="-325.62" font-family="Times,serif" font-size="12.00">Conv2D</text>
</g>
<!-- bn_relu2&#45;&gt;conv2d3 -->
<g id="edge6" class="edge">
<title>bn_relu2&#45;&gt;conv2d3</title>
<path fill="none" stroke="black" d="M90,-379.2C90,-379.2 90,-367.46 90,-367.46"/>
<polygon fill="black" stroke="black" points="93.5,-367.46 90,-357.46 86.5,-367.46 93.5,-367.46"/>
</g>
<!-- bn3 -->
<g id="node8" class="node">
<title>bn3</title>
<polygon fill="lightgrey" stroke="black" points="140,-266.42 40,-266.42 40,-209.42 140,-209.42 140,-266.42"/>
<text text-anchor="middle" x="90" y="-234.82" font-family="Times,serif" font-size="12.00">BatchNorm</text>
</g>
<!-- conv2d3&#45;&gt;bn3 -->
<g id="edge7" class="edge">
<title>conv2d3&#45;&gt;bn3</title>
<path fill="none" stroke="black" d="M90,-299.99C90,-299.99 90,-276.46 90,-276.46"/>
<polygon fill="black" stroke="black" points="93.5,-276.46 90,-266.46 86.5,-276.46 93.5,-276.46"/>
</g>
<!-- add_conv -->
<g id="node9" class="node">
<title>add_conv</title>
<ellipse fill="lightgrey" stroke="black" cx="143" cy="-135.31" rx="40.11" ry="40.11"/>
<text text-anchor="middle" x="143" y="-132.21" font-family="Times,serif" font-size="12.00">+</text>
</g>
<!-- bn3&#45;&gt;add_conv -->
<g id="edge8" class="edge">
<title>bn3&#45;&gt;add_conv</title>
<path fill="none" stroke="black" d="M121.35,-209.33C121.35,-209.33 121.35,-179.56 121.35,-179.56"/>
<polygon fill="black" stroke="black" points="124.85,-179.56 121.35,-169.56 117.85,-179.56 124.85,-179.56"/>
</g>
<!-- relu_conv -->
<g id="node10" class="node">
<title>relu_conv</title>
<polygon fill="lightgrey" stroke="black" points="180.5,-73 105.5,-73 105.5,-16 180.5,-16 180.5,-73"/>
<text text-anchor="middle" x="143" y="-41.4" font-family="Times,serif" font-size="12.00">ReLU</text>
</g>
<!-- add_conv&#45;&gt;relu_conv -->
<g id="edge13" class="edge">
<title>add_conv&#45;&gt;relu_conv</title>
<path fill="none" stroke="black" d="M143,-94.95C143,-94.95 143,-83.03 143,-83.03"/>
<polygon fill="black" stroke="black" points="146.5,-83.03 143,-73.03 139.5,-83.03 146.5,-83.03"/>
</g>
<!-- maxpool2 -->
<g id="node12" class="node">
<title>maxpool2</title>
<polygon fill="lightgrey" stroke="black" points="265.5,-673.22 162.5,-673.22 162.5,-616.22 265.5,-616.22 265.5,-673.22"/>
<text text-anchor="middle" x="214" y="-641.62" font-family="Times,serif" font-size="12.00">MaxPool2D</text>
</g>
<!-- conv_short&#45;&gt;maxpool2 -->
<g id="edge10" class="edge">
<title>conv_short&#45;&gt;maxpool2</title>
<path fill="none" stroke="red" stroke-dasharray="5,2" d="M214,-695.2C214,-695.2 214,-683.46 214,-683.46"/>
<polygon fill="red" stroke="red" points="217.5,-683.46 214,-673.46 210.5,-683.46 217.5,-683.46"/>
</g>
<!-- bn_short -->
<g id="node13" class="node">
<title>bn_short</title>
<polygon fill="lightgrey" stroke="black" points="266,-594.22 166,-594.22 166,-537.22 266,-537.22 266,-594.22"/>
<text text-anchor="middle" x="216" y="-562.62" font-family="Times,serif" font-size="12.00">BatchNorm</text>
</g>
<!-- maxpool2&#45;&gt;bn_short -->
<g id="edge11" class="edge">
<title>maxpool2&#45;&gt;bn_short</title>
<path fill="none" stroke="red" stroke-dasharray="5,2" d="M215.75,-616.2C215.75,-616.2 215.75,-604.46 215.75,-604.46"/>
<polygon fill="red" stroke="red" points="219.25,-604.46 215.75,-594.46 212.25,-604.46 219.25,-604.46"/>
</g>
<!-- bn_short&#45;&gt;add_conv -->
<g id="edge12" class="edge">
<title>bn_short&#45;&gt;add_conv</title>
<path fill="none" stroke="red" stroke-dasharray="5,2" d="M174.65,-537.15C174.65,-537.15 174.65,-170.31 174.65,-170.31"/>
<polygon fill="red" stroke="red" points="178.15,-170.31 174.65,-160.31 171.15,-170.31 178.15,-170.31"/>
</g>
<!-- id_in -->
<g id="node14" class="node">
<title>id_in</title>
<polygon fill="lightgrey" stroke="black" points="404.5,-831.22 323.5,-831.22 323.5,-774.22 404.5,-774.22 404.5,-831.22"/>
<text text-anchor="middle" x="364" y="-799.62" font-family="Times,serif" font-size="12.00">INPUT</text>
</g>
<!-- id_conv1 -->
<g id="node15" class="node">
<title>id_conv1</title>
<polygon fill="lightgrey" stroke="black" points="407,-752.22 321,-752.22 321,-695.22 407,-695.22 407,-752.22"/>
<text text-anchor="middle" x="364" y="-720.62" font-family="Times,serif" font-size="12.00">Conv2D</text>
</g>
<!-- id_in&#45;&gt;id_conv1 -->
<g id="edge14" class="edge">
<title>id_in&#45;&gt;id_conv1</title>
<path fill="none" stroke="black" d="M364,-774.2C364,-774.2 364,-762.46 364,-762.46"/>
<polygon fill="black" stroke="black" points="367.5,-762.46 364,-752.46 360.5,-762.46 367.5,-762.46"/>
</g>
<!-- add_id -->
<g id="node21" class="node">
<title>add_id</title>
<ellipse fill="lightgrey" stroke="black" cx="389" cy="-237.92" rx="40.11" ry="40.11"/>
<text text-anchor="middle" x="389" y="-234.82" font-family="Times,serif" font-size="12.00">+</text>
</g>
<!-- id_in&#45;&gt;add_id -->
<g id="edge21" class="edge">
<title>id_in&#45;&gt;add_id</title>
<path fill="none" stroke="red" stroke-dasharray="5,2" d="M404.67,-802C429.1,-802 455.5,-802 455.5,-802 455.5,-802 455.5,-237 455.5,-237 455.5,-237 439.6,-237 439.6,-237"/>
<polygon fill="red" stroke="red" points="439.6,-233.5 429.6,-237 439.6,-240.5 439.6,-233.5"/>
</g>
<!-- id_bn_relu1 -->
<g id="node16" class="node">
<title>id_bn_relu1</title>
<polygon fill="lightgrey" stroke="black" points="432,-673.22 296,-673.22 296,-616.22 432,-616.22 432,-673.22"/>
<text text-anchor="middle" x="364" y="-641.62" font-family="Times,serif" font-size="12.00">BatchNorm, ReLU</text>
</g>
<!-- id_conv1&#45;&gt;id_bn_relu1 -->
<g id="edge15" class="edge">
<title>id_conv1&#45;&gt;id_bn_relu1</title>
<path fill="none" stroke="black" d="M364,-695.2C364,-695.2 364,-683.46 364,-683.46"/>
<polygon fill="black" stroke="black" points="367.5,-683.46 364,-673.46 360.5,-683.46 367.5,-683.46"/>
</g>
<!-- id_conv2 -->
<g id="node17" class="node">
<title>id_conv2</title>
<polygon fill="lightgrey" stroke="black" points="437.5,-594.22 290.5,-594.22 290.5,-537.22 437.5,-537.22 437.5,-594.22"/>
<text text-anchor="middle" x="364" y="-562.62" font-family="Times,serif" font-size="12.00">Conv2D (kernel 3×3)</text>
</g>
<!-- id_bn_relu1&#45;&gt;id_conv2 -->
<g id="edge16" class="edge">
<title>id_bn_relu1&#45;&gt;id_conv2</title>
<path fill="none" stroke="black" d="M364,-616.2C364,-616.2 364,-604.46 364,-604.46"/>
<polygon fill="black" stroke="black" points="367.5,-604.46 364,-594.46 360.5,-604.46 367.5,-604.46"/>
</g>
<!-- id_bn_relu2 -->
<g id="node18" class="node">
<title>id_bn_relu2</title>
<polygon fill="lightgrey" stroke="black" points="432,-515.22 296,-515.22 296,-458.22 432,-458.22 432,-515.22"/>
<text text-anchor="middle" x="364" y="-483.62" font-family="Times,serif" font-size="12.00">BatchNorm, ReLU</text>
</g>
<!-- id_conv2&#45;&gt;id_bn_relu2 -->
<g id="edge17" class="edge">
<title>id_conv2&#45;&gt;id_bn_relu2</title>
<path fill="none" stroke="black" d="M364,-537.2C364,-537.2 364,-525.46 364,-525.46"/>
<polygon fill="black" stroke="black" points="367.5,-525.46 364,-515.46 360.5,-525.46 367.5,-525.46"/>
</g>
<!-- id_conv3 -->
<g id="node19" class="node">
<title>id_conv3</title>
<polygon fill="lightgrey" stroke="black" points="407,-436.22 321,-436.22 321,-379.22 407,-379.22 407,-436.22"/>
<text text-anchor="middle" x="364" y="-404.62" font-family="Times,serif" font-size="12.00">Conv2D</text>
</g>
<!-- id_bn_relu2&#45;&gt;id_conv3 -->
<g id="edge18" class="edge">
<title>id_bn_relu2&#45;&gt;id_conv3</title>
<path fill="none" stroke="black" d="M364,-458.2C364,-458.2 364,-446.46 364,-446.46"/>
<polygon fill="black" stroke="black" points="367.5,-446.46 364,-436.46 360.5,-446.46 367.5,-446.46"/>
</g>
<!-- id_bn3 -->
<g id="node20" class="node">
<title>id_bn3</title>
<polygon fill="lightgrey" stroke="black" points="414,-357.22 314,-357.22 314,-300.22 414,-300.22 414,-357.22"/>
<text text-anchor="middle" x="364" y="-325.62" font-family="Times,serif" font-size="12.00">BatchNorm</text>
</g>
<!-- id_conv3&#45;&gt;id_bn3 -->
<g id="edge19" class="edge">
<title>id_conv3&#45;&gt;id_bn3</title>
<path fill="none" stroke="black" d="M364,-379.2C364,-379.2 364,-367.46 364,-367.46"/>
<polygon fill="black" stroke="black" points="367.5,-367.46 364,-357.46 360.5,-367.46 367.5,-367.46"/>
</g>
<!-- id_bn3&#45;&gt;add_id -->
<g id="edge20" class="edge">
<title>id_bn3&#45;&gt;add_id</title>
<path fill="none" stroke="black" d="M381.35,-299.99C381.35,-299.99 381.35,-287.74 381.35,-287.74"/>
<polygon fill="black" stroke="black" points="384.85,-287.74 381.35,-277.74 377.85,-287.74 384.85,-287.74"/>
</g>
<!-- relu_id -->
<g id="node22" class="node">
<title>relu_id</title>
<polygon fill="lightgrey" stroke="black" points="426.5,-163.81 351.5,-163.81 351.5,-106.81 426.5,-106.81 426.5,-163.81"/>
<text text-anchor="middle" x="389" y="-132.21" font-family="Times,serif" font-size="12.00">ReLU</text>
</g>
<!-- add_id&#45;&gt;relu_id -->
<g id="edge22" class="edge">
<title>add_id&#45;&gt;relu_id</title>
<path fill="none" stroke="black" d="M389,-197.36C389,-197.36 389,-173.87 389,-173.87"/>
<polygon fill="black" stroke="black" points="392.5,-173.87 389,-163.87 385.5,-173.87 392.5,-173.87"/>
</g>
</g>
</svg>
