<?xml version="1.0" encoding="UTF-8" standalone="no"?>
<!DOCTYPE svg PUBLIC "-//W3C//DTD SVG 1.1//EN"
 "http://www.w3.org/Graphics/SVG/1.1/DTD/svg11.dtd">
<!-- Generated by graphviz version 2.43.0 (0)
 -->
<!-- Title: %3 Pages: 1 -->
<svg width="324pt" height="531pt"
 viewBox="0.00 0.00 324.00 531.18" xmlns="http://www.w3.org/2000/svg" xmlns:xlink="http://www.w3.org/1999/xlink">
<g id="graph0" class="graph" transform="scale(0.75 0.75) rotate(0) translate(4 700.97)">
<title>%3</title>
<polygon fill="white" stroke="transparent" points="-4,4 -4,-700.97 426,-700.97 426,4 -4,4"/>
<g id="clust1" class="cluster">
<title>cluster_convblock</title>
<polygon fill="lightpink" stroke="lightpink" points="8,-8 8,-688.97 242,-688.97 242,-8 8,-8"/>
<text text-anchor="middle" x="125" y="-673.77" font-family="Times,serif" font-size="14.00">Convolution block</text>
</g>
<g id="clust2" class="cluster">
<title>cluster_idblock</title>
<polygon fill="lightgreen" stroke="lightgreen" points="250,-79.49 250,-688.97 414,-688.97 414,-79.49 250,-79.49"/>
<text text-anchor="middle" x="332" y="-673.77" font-family="Times,serif" font-size="14.00">Identity block</text>
</g>
<!-- conv_in -->
<g id="node1" class="node">
<title>conv_in</title>
<polygon fill="none" stroke="black" points="108.5,-657.97 43.5,-657.97 43.5,-616.97 108.5,-616.97 108.5,-657.97"/>
<text text-anchor="middle" x="76" y="-634.37" font-family="Times,serif" font-size="12.00">INPUT</text>
</g>
<!-- conv2d1 -->
<g id="node2" class="node">
<title>conv2d1</title>
<polygon fill="none" stroke="black" points="111,-594.97 41,-594.97 41,-553.97 111,-553.97 111,-594.97"/>
<text text-anchor="middle" x="76" y="-571.37" font-family="Times,serif" font-size="12.00">Conv2D</text>
</g>
<!-- conv_in&#45;&gt;conv2d1 -->
<g id="edge1" class="edge">
<title>conv_in&#45;&gt;conv2d1</title>
<path fill="none" stroke="black" d="M76,-616.84C76,-616.84 76,-605.36 76,-605.36"/>
<polygon fill="black" stroke="black" points="79.5,-605.36 76,-595.36 72.5,-605.36 79.5,-605.36"/>
</g>
<!-- conv_short -->
<g id="node11" class="node">
<title>conv_short</title>
<polygon fill="none" stroke="black" points="225,-594.97 155,-594.97 155,-553.97 225,-553.97 225,-594.97"/>
<text text-anchor="middle" x="190" y="-571.37" font-family="Times,serif" font-size="12.00">Conv2D</text>
</g>
<!-- conv_in&#45;&gt;conv_short -->
<g id="edge9" class="edge">
<title>conv_in&#45;&gt;conv_short</title>
<path fill="none" stroke="red" stroke-dasharray="5,2" d="M108.67,-637C142.35,-637 190,-637 190,-637 190,-637 190,-605.29 190,-605.29"/>
<polygon fill="red" stroke="red" points="193.5,-605.29 190,-595.29 186.5,-605.29 193.5,-605.29"/>
</g>
<!-- maxpool1 -->
<g id="node3" class="node">
<title>maxpool1</title>
<polygon fill="none" stroke="black" points="119.5,-531.97 32.5,-531.97 32.5,-490.97 119.5,-490.97 119.5,-531.97"/>
<text text-anchor="middle" x="76" y="-508.37" font-family="Times,serif" font-size="12.00">MaxPool2D</text>
</g>
<!-- conv2d1&#45;&gt;maxpool1 -->
<g id="edge2" class="edge">
<title>conv2d1&#45;&gt;maxpool1</title>
<path fill="none" stroke="black" d="M76,-553.84C76,-553.84 76,-542.36 76,-542.36"/>
<polygon fill="black" stroke="black" points="79.5,-542.36 76,-532.36 72.5,-542.36 79.5,-542.36"/>
</g>
<!-- bn_relu1 -->
<g id="node4" class="node">
<title>bn_relu1</title>
<polygon fill="none" stroke="black" points="136,-468.97 16,-468.97 16,-427.97 136,-427.97 136,-468.97"/>
<text text-anchor="middle" x="76" y="-445.37" font-family="Times,serif" font-size="12.00">BatchNorm, ReLU</text>
</g>
<!-- maxpool1&#45;&gt;bn_relu1 -->
<g id="edge3" class="edge">
<title>maxpool1&#45;&gt;bn_relu1</title>
<path fill="none" stroke="black" d="M76,-490.84C76,-490.84 76,-479.36 76,-479.36"/>
<polygon fill="black" stroke="black" points="79.5,-479.36 76,-469.36 72.5,-479.36 79.5,-479.36"/>
</g>
<!-- conv2d2 -->
<g id="node5" class="node">
<title>conv2d2</title>
<polygon fill="none" stroke="black" points="147.5,-405.97 16.5,-405.97 16.5,-364.97 147.5,-364.97 147.5,-405.97"/>
<text text-anchor="middle" x="82" y="-382.37" font-family="Times,serif" font-size="12.00">Conv2D (kernel 3×3)</text>
</g>
<!-- bn_relu1&#45;&gt;conv2d2 -->
<g id="edge4" class="edge">
<title>bn_relu1&#45;&gt;conv2d2</title>
<path fill="none" stroke="black" d="M76.25,-427.84C76.25,-427.84 76.25,-416.36 76.25,-416.36"/>
<polygon fill="black" stroke="black" points="79.75,-416.36 76.25,-406.36 72.75,-416.36 79.75,-416.36"/>
</g>
<!-- bn_relu2 -->
<g id="node6" class="node">
<title>bn_relu2</title>
<polygon fill="none" stroke="black" points="142,-342.97 22,-342.97 22,-301.97 142,-301.97 142,-342.97"/>
<text text-anchor="middle" x="82" y="-319.37" font-family="Times,serif" font-size="12.00">BatchNorm, ReLU</text>
</g>
<!-- conv2d2&#45;&gt;bn_relu2 -->
<g id="edge5" class="edge">
<title>conv2d2&#45;&gt;bn_relu2</title>
<path fill="none" stroke="black" d="M82,-364.84C82,-364.84 82,-353.36 82,-353.36"/>
<polygon fill="black" stroke="black" points="85.5,-353.36 82,-343.36 78.5,-353.36 85.5,-353.36"/>
</g>
<!-- conv2d3 -->
<g id="node7" class="node">
<title>conv2d3</title>
<polygon fill="none" stroke="black" points="117,-279.97 47,-279.97 47,-238.97 117,-238.97 117,-279.97"/>
<text text-anchor="middle" x="82" y="-256.37" font-family="Times,serif" font-size="12.00">Conv2D</text>
</g>
<!-- bn_relu2&#45;&gt;conv2d3 -->
<g id="edge6" class="edge">
<title>bn_relu2&#45;&gt;conv2d3</title>
<path fill="none" stroke="black" d="M82,-301.84C82,-301.84 82,-290.36 82,-290.36"/>
<polygon fill="black" stroke="black" points="85.5,-290.36 82,-280.36 78.5,-290.36 85.5,-290.36"/>
</g>
<!-- bn3 -->
<g id="node8" class="node">
<title>bn3</title>
<polygon fill="none" stroke="black" points="124,-208.47 40,-208.47 40,-167.47 124,-167.47 124,-208.47"/>
<text text-anchor="middle" x="82" y="-184.87" font-family="Times,serif" font-size="12.00">BatchNorm</text>
</g>
<!-- conv2d3&#45;&gt;bn3 -->
<g id="edge7" class="edge">
<title>conv2d3&#45;&gt;bn3</title>
<path fill="none" stroke="black" d="M82,-238.79C82,-238.79 82,-218.85 82,-218.85"/>
<polygon fill="black" stroke="black" points="85.5,-218.85 82,-208.85 78.5,-218.85 85.5,-218.85"/>
</g>
<!-- add_conv -->
<g id="node9" class="node">
<title>add_conv</title>
<ellipse fill="none" stroke="black" cx="129" cy="-107.99" rx="28.98" ry="28.98"/>
<text text-anchor="middle" x="129" y="-104.89" font-family="Times,serif" font-size="12.00">+</text>
</g>
<!-- bn3&#45;&gt;add_conv -->
<g id="edge8" class="edge">
<title>bn3&#45;&gt;add_conv</title>
<path fill="none" stroke="black" d="M112,-167.38C112,-167.38 112,-141.63 112,-141.63"/>
<polygon fill="black" stroke="black" points="115.5,-141.63 112,-131.63 108.5,-141.63 115.5,-141.63"/>
</g>
<!-- relu_conv -->
<g id="node10" class="node">
<title>relu_conv</title>
<polygon fill="none" stroke="black" points="158.5,-57 99.5,-57 99.5,-16 158.5,-16 158.5,-57"/>
<text text-anchor="middle" x="129" y="-33.4" font-family="Times,serif" font-size="12.00">ReLU</text>
</g>
<!-- add_conv&#45;&gt;relu_conv -->
<g id="edge13" class="edge">
<title>add_conv&#45;&gt;relu_conv</title>
<path fill="none" stroke="black" d="M129,-78.91C129,-78.91 129,-67.23 129,-67.23"/>
<polygon fill="black" stroke="black" points="132.5,-67.23 129,-57.23 125.5,-67.23 132.5,-67.23"/>
</g>
<!-- maxpool2 -->
<g id="node12" class="node">
<title>maxpool2</title>
<polygon fill="none" stroke="black" points="233.5,-531.97 146.5,-531.97 146.5,-490.97 233.5,-490.97 233.5,-531.97"/>
<text text-anchor="middle" x="190" y="-508.37" font-family="Times,serif" font-size="12.00">MaxPool2D</text>
</g>
<!-- conv_short&#45;&gt;maxpool2 -->
<g id="edge10" class="edge">
<title>conv_short&#45;&gt;maxpool2</title>
<path fill="none" stroke="red" stroke-dasharray="5,2" d="M190,-553.84C190,-553.84 190,-542.36 190,-542.36"/>
<polygon fill="red" stroke="red" points="193.5,-542.36 190,-532.36 186.5,-542.36 193.5,-542.36"/>
</g>
<!-- bn_short -->
<g id="node13" class="node">
<title>bn_short</title>
<polygon fill="none" stroke="black" points="234,-468.97 150,-468.97 150,-427.97 234,-427.97 234,-468.97"/>
<text text-anchor="middle" x="192" y="-445.37" font-family="Times,serif" font-size="12.00">BatchNorm</text>
</g>
<!-- maxpool2&#45;&gt;bn_short -->
<g id="edge11" class="edge">
<title>maxpool2&#45;&gt;bn_short</title>
<path fill="none" stroke="red" stroke-dasharray="5,2" d="M191.75,-490.84C191.75,-490.84 191.75,-479.36 191.75,-479.36"/>
<polygon fill="red" stroke="red" points="195.25,-479.36 191.75,-469.36 188.25,-479.36 195.25,-479.36"/>
</g>
<!-- bn_short&#45;&gt;add_conv -->
<g id="edge12" class="edge">
<title>bn_short&#45;&gt;add_conv</title>
<path fill="none" stroke="red" stroke-dasharray="5,2" d="M154,-427.93C154,-427.93 154,-132.9 154,-132.9"/>
<polygon fill="red" stroke="red" points="157.5,-132.9 154,-122.9 150.5,-132.9 157.5,-132.9"/>
</g>
<!-- id_in -->
<g id="node14" class="node">
<title>id_in</title>
<polygon fill="none" stroke="black" points="356.5,-657.97 291.5,-657.97 291.5,-616.97 356.5,-616.97 356.5,-657.97"/>
<text text-anchor="middle" x="324" y="-634.37" font-family="Times,serif" font-size="12.00">INPUT</text>
</g>
<!-- id_conv1 -->
<g id="node15" class="node">
<title>id_conv1</title>
<polygon fill="none" stroke="black" points="359,-594.97 289,-594.97 289,-553.97 359,-553.97 359,-594.97"/>
<text text-anchor="middle" x="324" y="-571.37" font-family="Times,serif" font-size="12.00">Conv2D</text>
</g>
<!-- id_in&#45;&gt;id_conv1 -->
<g id="edge14" class="edge">
<title>id_in&#45;&gt;id_conv1</title>
<path fill="none" stroke="black" d="M324,-616.84C324,-616.84 324,-605.36 324,-605.36"/>
<polygon fill="black" stroke="black" points="327.5,-605.36 324,-595.36 320.5,-605.36 327.5,-605.36"/>
</g>
<!-- add_id -->
<g id="node21" class="node">
<title>add_id</title>
<ellipse fill="none" stroke="black" cx="350" cy="-187.97" rx="28.98" ry="28.98"/>
<text text-anchor="middle" x="350" y="-184.87" font-family="Times,serif" font-size="12.00">+</text>
</g>
<!-- id_in&#45;&gt;add_id -->
<g id="edge21" class="edge">
<title>id_in&#45;&gt;add_id</title>
<path fill="none" stroke="red" stroke-dasharray="5,2" d="M356.52,-637C379.97,-637 407.5,-637 407.5,-637 407.5,-637 407.5,-187 407.5,-187 407.5,-187 389.09,-187 389.09,-187"/>
<polygon fill="red" stroke="red" points="389.09,-183.5 379.09,-187 389.09,-190.5 389.09,-183.5"/>
</g>
<!-- id_bn_relu1 -->
<g id="node16" class="node">
<title>id_bn_relu1</title>
<polygon fill="none" stroke="black" points="384,-531.97 264,-531.97 264,-490.97 384,-490.97 384,-531.97"/>
<text text-anchor="middle" x="324" y="-508.37" font-family="Times,serif" font-size="12.00">BatchNorm, ReLU</text>
</g>
<!-- id_conv1&#45;&gt;id_bn_relu1 -->
<g id="edge15" class="edge">
<title>id_conv1&#45;&gt;id_bn_relu1</title>
<path fill="none" stroke="black" d="M324,-553.84C324,-553.84 324,-542.36 324,-542.36"/>
<polygon fill="black" stroke="black" points="327.5,-542.36 324,-532.36 320.5,-542.36 327.5,-542.36"/>
</g>
<!-- id_conv2 -->
<g id="node17" class="node">
<title>id_conv2</title>
<polygon fill="none" stroke="black" points="389.5,-468.97 258.5,-468.97 258.5,-427.97 389.5,-427.97 389.5,-468.97"/>
<text text-anchor="middle" x="324" y="-445.37" font-family="Times,serif" font-size="12.00">Conv2D (kernel 3×3)</text>
</g>
<!-- id_bn_relu1&#45;&gt;id_conv2 -->
<g id="edge16" class="edge">
<title>id_bn_relu1&#45;&gt;id_conv2</title>
<path fill="none" stroke="black" d="M324,-490.84C324,-490.84 324,-479.36 324,-479.36"/>
<polygon fill="black" stroke="black" points="327.5,-479.36 324,-469.36 320.5,-479.36 327.5,-479.36"/>
</g>
<!-- id_bn_relu2 -->
<g id="node18" class="node">
<title>id_bn_relu2</title>
<polygon fill="none" stroke="black" points="384,-405.97 264,-405.97 264,-364.97 384,-364.97 384,-405.97"/>
<text text-anchor="middle" x="324" y="-382.37" font-family="Times,serif" font-size="12.00">BatchNorm, ReLU</text>
</g>
<!-- id_conv2&#45;&gt;id_bn_relu2 -->
<g id="edge17" class="edge">
<title>id_conv2&#45;&gt;id_bn_relu2</title>
<path fill="none" stroke="black" d="M324,-427.84C324,-427.84 324,-416.36 324,-416.36"/>
<polygon fill="black" stroke="black" points="327.5,-416.36 324,-406.36 320.5,-416.36 327.5,-416.36"/>
</g>
<!-- id_conv3 -->
<g id="node19" class="node">
<title>id_conv3</title>
<polygon fill="none" stroke="black" points="359,-342.97 289,-342.97 289,-301.97 359,-301.97 359,-342.97"/>
<text text-anchor="middle" x="324" y="-319.37" font-family="Times,serif" font-size="12.00">Conv2D</text>
</g>
<!-- id_bn_relu2&#45;&gt;id_conv3 -->
<g id="edge18" class="edge">
<title>id_bn_relu2&#45;&gt;id_conv3</title>
<path fill="none" stroke="black" d="M324,-364.84C324,-364.84 324,-353.36 324,-353.36"/>
<polygon fill="black" stroke="black" points="327.5,-353.36 324,-343.36 320.5,-353.36 327.5,-353.36"/>
</g>
<!-- id_bn3 -->
<g id="node20" class="node">
<title>id_bn3</title>
<polygon fill="none" stroke="black" points="366,-279.97 282,-279.97 282,-238.97 366,-238.97 366,-279.97"/>
<text text-anchor="middle" x="324" y="-256.37" font-family="Times,serif" font-size="12.00">BatchNorm</text>
</g>
<!-- id_conv3&#45;&gt;id_bn3 -->
<g id="edge19" class="edge">
<title>id_conv3&#45;&gt;id_bn3</title>
<path fill="none" stroke="black" d="M324,-301.84C324,-301.84 324,-290.36 324,-290.36"/>
<polygon fill="black" stroke="black" points="327.5,-290.36 324,-280.36 320.5,-290.36 327.5,-290.36"/>
</g>
<!-- id_bn3&#45;&gt;add_id -->
<g id="edge20" class="edge">
<title>id_bn3&#45;&gt;add_id</title>
<path fill="none" stroke="black" d="M343.5,-238.79C343.5,-238.79 343.5,-226.32 343.5,-226.32"/>
<polygon fill="black" stroke="black" points="347,-226.32 343.5,-216.32 340,-226.32 347,-226.32"/>
</g>
<!-- relu_id -->
<g id="node22" class="node">
<title>relu_id</title>
<polygon fill="none" stroke="black" points="379.5,-128.49 320.5,-128.49 320.5,-87.49 379.5,-87.49 379.5,-128.49"/>
<text text-anchor="middle" x="350" y="-104.89" font-family="Times,serif" font-size="12.00">ReLU</text>
</g>
<!-- add_id&#45;&gt;relu_id -->
<g id="edge22" class="edge">
<title>add_id&#45;&gt;relu_id</title>
<path fill="none" stroke="black" d="M350,-158.65C350,-158.65 350,-138.56 350,-138.56"/>
<polygon fill="black" stroke="black" points="353.5,-138.56 350,-128.56 346.5,-138.56 353.5,-138.56"/>
</g>
</g>
</svg>
