<?xml version="1.0" encoding="UTF-8" standalone="no"?>
<!DOCTYPE svg PUBLIC "-//W3C//DTD SVG 1.1//EN"
 "http://www.w3.org/Graphics/SVG/1.1/DTD/svg11.dtd">
<!-- Generated by graphviz version 2.43.0 (0)
 -->
<!-- Title: %3 Pages: 1 -->
<svg width="324pt" height="504pt"
 viewBox="0.00 0.00 324.00 504.17" xmlns="http://www.w3.org/2000/svg" xmlns:xlink="http://www.w3.org/1999/xlink">
<g id="graph0" class="graph" transform="scale(0.7 0.7) rotate(0) translate(4 711.79)">
<title>%3</title>
<polygon fill="white" stroke="transparent" points="-4,4 -4,-711.79 456,-711.79 456,4 -4,4"/>
<g id="clust1" class="cluster">
<title>cluster_convblock</title>
<polygon fill="lightpink" stroke="lightpink" points="8,-8 8,-699.79 260,-699.79 260,-8 8,-8"/>
<text text-anchor="middle" x="134" y="-684.59" font-family="Times,serif" font-size="14.00">CONVOLUTION BLOCK</text>
</g>
<g id="clust2" class="cluster">
<title>cluster_idblock</title>
<polygon fill="lightgreen" stroke="lightgreen" points="268,-80.7 268,-699.79 444,-699.79 444,-80.7 268,-80.7"/>
<text text-anchor="middle" x="356" y="-684.59" font-family="Times,serif" font-size="14.00">IDENTITY BLOCK</text>
</g>
<!-- conv_in -->
<g id="node1" class="node">
<title>conv_in</title>
<polygon fill="none" stroke="black" points="115,-668.79 47,-668.79 47,-626.79 115,-626.79 115,-668.79"/>
<text text-anchor="middle" x="81" y="-644.39" font-family="Times,serif" font-size="13.00">INPUT</text>
</g>
<!-- conv2d1 -->
<g id="node2" class="node">
<title>conv2d1</title>
<polygon fill="none" stroke="black" points="118,-604.79 44,-604.79 44,-562.79 118,-562.79 118,-604.79"/>
<text text-anchor="middle" x="81" y="-580.39" font-family="Times,serif" font-size="13.00">Conv2D</text>
</g>
<!-- conv_in&#45;&gt;conv2d1 -->
<g id="edge1" class="edge">
<title>conv_in&#45;&gt;conv2d1</title>
<path fill="none" stroke="black" d="M81,-626.48C81,-626.48 81,-614.79 81,-614.79"/>
<polygon fill="black" stroke="black" points="84.5,-614.79 81,-604.79 77.5,-614.79 84.5,-614.79"/>
</g>
<!-- conv_short -->
<g id="node11" class="node">
<title>conv_short</title>
<polygon fill="none" stroke="black" points="242,-604.79 168,-604.79 168,-562.79 242,-562.79 242,-604.79"/>
<text text-anchor="middle" x="205" y="-580.39" font-family="Times,serif" font-size="13.00">Conv2D</text>
</g>
<!-- conv_in&#45;&gt;conv_short -->
<g id="edge9" class="edge">
<title>conv_in&#45;&gt;conv_short</title>
<path fill="none" stroke="red" stroke-dasharray="5,2" d="M115.21,-647C151.92,-647 205,-647 205,-647 205,-647 205,-614.84 205,-614.84"/>
<polygon fill="red" stroke="red" points="208.5,-614.84 205,-604.84 201.5,-614.84 208.5,-614.84"/>
</g>
<!-- maxpool1 -->
<g id="node3" class="node">
<title>maxpool1</title>
<polygon fill="none" stroke="black" points="128,-540.79 34,-540.79 34,-498.79 128,-498.79 128,-540.79"/>
<text text-anchor="middle" x="81" y="-516.39" font-family="Times,serif" font-size="13.00">MaxPool2D</text>
</g>
<!-- conv2d1&#45;&gt;maxpool1 -->
<g id="edge2" class="edge">
<title>conv2d1&#45;&gt;maxpool1</title>
<path fill="none" stroke="black" d="M81,-562.48C81,-562.48 81,-550.79 81,-550.79"/>
<polygon fill="black" stroke="black" points="84.5,-550.79 81,-540.79 77.5,-550.79 84.5,-550.79"/>
</g>
<!-- bn_relu1 -->
<g id="node4" class="node">
<title>bn_relu1</title>
<polygon fill="none" stroke="black" points="146,-476.79 16,-476.79 16,-434.79 146,-434.79 146,-476.79"/>
<text text-anchor="middle" x="81" y="-452.39" font-family="Times,serif" font-size="13.00">BatchNorm, ReLU</text>
</g>
<!-- maxpool1&#45;&gt;bn_relu1 -->
<g id="edge3" class="edge">
<title>maxpool1&#45;&gt;bn_relu1</title>
<path fill="none" stroke="black" d="M81,-498.48C81,-498.48 81,-486.79 81,-486.79"/>
<polygon fill="black" stroke="black" points="84.5,-486.79 81,-476.79 77.5,-486.79 84.5,-486.79"/>
</g>
<!-- conv2d2 -->
<g id="node5" class="node">
<title>conv2d2</title>
<polygon fill="none" stroke="black" points="160,-412.79 16,-412.79 16,-370.79 160,-370.79 160,-412.79"/>
<text text-anchor="middle" x="88" y="-388.39" font-family="Times,serif" font-size="13.00">Conv2D (kernel 3×3)</text>
</g>
<!-- bn_relu1&#45;&gt;conv2d2 -->
<g id="edge4" class="edge">
<title>bn_relu1&#45;&gt;conv2d2</title>
<path fill="none" stroke="black" d="M81,-434.48C81,-434.48 81,-422.79 81,-422.79"/>
<polygon fill="black" stroke="black" points="84.5,-422.79 81,-412.79 77.5,-422.79 84.5,-422.79"/>
</g>
<!-- bn_relu2 -->
<g id="node6" class="node">
<title>bn_relu2</title>
<polygon fill="none" stroke="black" points="153,-348.79 23,-348.79 23,-306.79 153,-306.79 153,-348.79"/>
<text text-anchor="middle" x="88" y="-324.39" font-family="Times,serif" font-size="13.00">BatchNorm, ReLU</text>
</g>
<!-- conv2d2&#45;&gt;bn_relu2 -->
<g id="edge5" class="edge">
<title>conv2d2&#45;&gt;bn_relu2</title>
<path fill="none" stroke="black" d="M88,-370.48C88,-370.48 88,-358.79 88,-358.79"/>
<polygon fill="black" stroke="black" points="91.5,-358.79 88,-348.79 84.5,-358.79 91.5,-358.79"/>
</g>
<!-- conv2d3 -->
<g id="node7" class="node">
<title>conv2d3</title>
<polygon fill="none" stroke="black" points="125,-284.79 51,-284.79 51,-242.79 125,-242.79 125,-284.79"/>
<text text-anchor="middle" x="88" y="-260.39" font-family="Times,serif" font-size="13.00">Conv2D</text>
</g>
<!-- bn_relu2&#45;&gt;conv2d3 -->
<g id="edge6" class="edge">
<title>bn_relu2&#45;&gt;conv2d3</title>
<path fill="none" stroke="black" d="M88,-306.48C88,-306.48 88,-294.79 88,-294.79"/>
<polygon fill="black" stroke="black" points="91.5,-294.79 88,-284.79 84.5,-294.79 91.5,-294.79"/>
</g>
<!-- bn3 -->
<g id="node8" class="node">
<title>bn3</title>
<polygon fill="none" stroke="black" points="133.5,-212.1 42.5,-212.1 42.5,-170.1 133.5,-170.1 133.5,-212.1"/>
<text text-anchor="middle" x="88" y="-187.7" font-family="Times,serif" font-size="13.00">BatchNorm</text>
</g>
<!-- conv2d3&#45;&gt;bn3 -->
<g id="edge7" class="edge">
<title>conv2d3&#45;&gt;bn3</title>
<path fill="none" stroke="black" d="M88,-242.77C88,-242.77 88,-222.33 88,-222.33"/>
<polygon fill="black" stroke="black" points="91.5,-222.33 88,-212.33 84.5,-222.33 91.5,-222.33"/>
</g>
<!-- add_conv -->
<g id="node9" class="node">
<title>add_conv</title>
<ellipse fill="none" stroke="black" cx="139" cy="-109.7" rx="29.9" ry="29.9"/>
<text text-anchor="middle" x="139" y="-106.3" font-family="Times,serif" font-size="13.00">+</text>
</g>
<!-- bn3&#45;&gt;add_conv -->
<g id="edge8" class="edge">
<title>bn3&#45;&gt;add_conv</title>
<path fill="none" stroke="black" d="M121.4,-169.71C121.4,-169.71 121.4,-143.81 121.4,-143.81"/>
<polygon fill="black" stroke="black" points="124.9,-143.81 121.4,-133.81 117.9,-143.81 124.9,-143.81"/>
</g>
<!-- relu_conv -->
<g id="node10" class="node">
<title>relu_conv</title>
<polygon fill="none" stroke="black" points="170,-58 108,-58 108,-16 170,-16 170,-58"/>
<text text-anchor="middle" x="139" y="-33.6" font-family="Times,serif" font-size="13.00">ReLU</text>
</g>
<!-- add_conv&#45;&gt;relu_conv -->
<g id="edge13" class="edge">
<title>add_conv&#45;&gt;relu_conv</title>
<path fill="none" stroke="black" d="M139,-79.71C139,-79.71 139,-68.27 139,-68.27"/>
<polygon fill="black" stroke="black" points="142.5,-68.27 139,-58.27 135.5,-68.27 142.5,-68.27"/>
</g>
<!-- maxpool2 -->
<g id="node12" class="node">
<title>maxpool2</title>
<polygon fill="none" stroke="black" points="252,-540.79 158,-540.79 158,-498.79 252,-498.79 252,-540.79"/>
<text text-anchor="middle" x="205" y="-516.39" font-family="Times,serif" font-size="13.00">MaxPool2D</text>
</g>
<!-- conv_short&#45;&gt;maxpool2 -->
<g id="edge10" class="edge">
<title>conv_short&#45;&gt;maxpool2</title>
<path fill="none" stroke="red" stroke-dasharray="5,2" d="M205,-562.48C205,-562.48 205,-550.79 205,-550.79"/>
<polygon fill="red" stroke="red" points="208.5,-550.79 205,-540.79 201.5,-550.79 208.5,-550.79"/>
</g>
<!-- bn_short -->
<g id="node13" class="node">
<title>bn_short</title>
<polygon fill="none" stroke="black" points="251.5,-476.79 160.5,-476.79 160.5,-434.79 251.5,-434.79 251.5,-476.79"/>
<text text-anchor="middle" x="206" y="-452.39" font-family="Times,serif" font-size="13.00">BatchNorm</text>
</g>
<!-- maxpool2&#45;&gt;bn_short -->
<g id="edge11" class="edge">
<title>maxpool2&#45;&gt;bn_short</title>
<path fill="none" stroke="red" stroke-dasharray="5,2" d="M206,-498.48C206,-498.48 206,-486.79 206,-486.79"/>
<polygon fill="red" stroke="red" points="209.5,-486.79 206,-476.79 202.5,-486.79 209.5,-486.79"/>
</g>
<!-- bn_short&#45;&gt;add_conv -->
<g id="edge12" class="edge">
<title>bn_short&#45;&gt;add_conv</title>
<path fill="none" stroke="red" stroke-dasharray="5,2" d="M164.6,-434.67C164.6,-434.67 164.6,-134.82 164.6,-134.82"/>
<polygon fill="red" stroke="red" points="168.1,-134.82 164.6,-124.82 161.1,-134.82 168.1,-134.82"/>
</g>
<!-- id_in -->
<g id="node14" class="node">
<title>id_in</title>
<polygon fill="none" stroke="black" points="382,-668.79 314,-668.79 314,-626.79 382,-626.79 382,-668.79"/>
<text text-anchor="middle" x="348" y="-644.39" font-family="Times,serif" font-size="13.00">INPUT</text>
</g>
<!-- id_conv1 -->
<g id="node15" class="node">
<title>id_conv1</title>
<polygon fill="none" stroke="black" points="385,-604.79 311,-604.79 311,-562.79 385,-562.79 385,-604.79"/>
<text text-anchor="middle" x="348" y="-580.39" font-family="Times,serif" font-size="13.00">Conv2D</text>
</g>
<!-- id_in&#45;&gt;id_conv1 -->
<g id="edge14" class="edge">
<title>id_in&#45;&gt;id_conv1</title>
<path fill="none" stroke="black" d="M348,-626.48C348,-626.48 348,-614.79 348,-614.79"/>
<polygon fill="black" stroke="black" points="351.5,-614.79 348,-604.79 344.5,-614.79 351.5,-614.79"/>
</g>
<!-- add_id -->
<g id="node21" class="node">
<title>add_id</title>
<ellipse fill="none" stroke="black" cx="376" cy="-191.1" rx="29.9" ry="29.9"/>
<text text-anchor="middle" x="376" y="-187.7" font-family="Times,serif" font-size="13.00">+</text>
</g>
<!-- id_in&#45;&gt;add_id -->
<g id="edge21" class="edge">
<title>id_in&#45;&gt;add_id</title>
<path fill="none" stroke="red" stroke-dasharray="5,2" d="M382.03,-647C407.51,-647 438,-647 438,-647 438,-647 438,-191 438,-191 438,-191 415.91,-191 415.91,-191"/>
<polygon fill="red" stroke="red" points="415.91,-187.5 405.91,-191 415.91,-194.5 415.91,-187.5"/>
</g>
<!-- id_bn_relu1 -->
<g id="node16" class="node">
<title>id_bn_relu1</title>
<polygon fill="none" stroke="black" points="413,-540.79 283,-540.79 283,-498.79 413,-498.79 413,-540.79"/>
<text text-anchor="middle" x="348" y="-516.39" font-family="Times,serif" font-size="13.00">BatchNorm, ReLU</text>
</g>
<!-- id_conv1&#45;&gt;id_bn_relu1 -->
<g id="edge15" class="edge">
<title>id_conv1&#45;&gt;id_bn_relu1</title>
<path fill="none" stroke="black" d="M348,-562.48C348,-562.48 348,-550.79 348,-550.79"/>
<polygon fill="black" stroke="black" points="351.5,-550.79 348,-540.79 344.5,-550.79 351.5,-550.79"/>
</g>
<!-- id_conv2 -->
<g id="node17" class="node">
<title>id_conv2</title>
<polygon fill="none" stroke="black" points="420,-476.79 276,-476.79 276,-434.79 420,-434.79 420,-476.79"/>
<text text-anchor="middle" x="348" y="-452.39" font-family="Times,serif" font-size="13.00">Conv2D (kernel 3×3)</text>
</g>
<!-- id_bn_relu1&#45;&gt;id_conv2 -->
<g id="edge16" class="edge">
<title>id_bn_relu1&#45;&gt;id_conv2</title>
<path fill="none" stroke="black" d="M348,-498.48C348,-498.48 348,-486.79 348,-486.79"/>
<polygon fill="black" stroke="black" points="351.5,-486.79 348,-476.79 344.5,-486.79 351.5,-486.79"/>
</g>
<!-- id_bn_relu2 -->
<g id="node18" class="node">
<title>id_bn_relu2</title>
<polygon fill="none" stroke="black" points="413,-412.79 283,-412.79 283,-370.79 413,-370.79 413,-412.79"/>
<text text-anchor="middle" x="348" y="-388.39" font-family="Times,serif" font-size="13.00">BatchNorm, ReLU</text>
</g>
<!-- id_conv2&#45;&gt;id_bn_relu2 -->
<g id="edge17" class="edge">
<title>id_conv2&#45;&gt;id_bn_relu2</title>
<path fill="none" stroke="black" d="M348,-434.48C348,-434.48 348,-422.79 348,-422.79"/>
<polygon fill="black" stroke="black" points="351.5,-422.79 348,-412.79 344.5,-422.79 351.5,-422.79"/>
</g>
<!-- id_conv3 -->
<g id="node19" class="node">
<title>id_conv3</title>
<polygon fill="none" stroke="black" points="385,-348.79 311,-348.79 311,-306.79 385,-306.79 385,-348.79"/>
<text text-anchor="middle" x="348" y="-324.39" font-family="Times,serif" font-size="13.00">Conv2D</text>
</g>
<!-- id_bn_relu2&#45;&gt;id_conv3 -->
<g id="edge18" class="edge">
<title>id_bn_relu2&#45;&gt;id_conv3</title>
<path fill="none" stroke="black" d="M348,-370.48C348,-370.48 348,-358.79 348,-358.79"/>
<polygon fill="black" stroke="black" points="351.5,-358.79 348,-348.79 344.5,-358.79 351.5,-358.79"/>
</g>
<!-- id_bn3 -->
<g id="node20" class="node">
<title>id_bn3</title>
<polygon fill="none" stroke="black" points="393.5,-284.79 302.5,-284.79 302.5,-242.79 393.5,-242.79 393.5,-284.79"/>
<text text-anchor="middle" x="348" y="-260.39" font-family="Times,serif" font-size="13.00">BatchNorm</text>
</g>
<!-- id_conv3&#45;&gt;id_bn3 -->
<g id="edge19" class="edge">
<title>id_conv3&#45;&gt;id_bn3</title>
<path fill="none" stroke="black" d="M348,-306.48C348,-306.48 348,-294.79 348,-294.79"/>
<polygon fill="black" stroke="black" points="351.5,-294.79 348,-284.79 344.5,-294.79 351.5,-294.79"/>
</g>
<!-- id_bn3&#45;&gt;add_id -->
<g id="edge20" class="edge">
<title>id_bn3&#45;&gt;add_id</title>
<path fill="none" stroke="black" d="M369.9,-242.77C369.9,-242.77 369.9,-230.19 369.9,-230.19"/>
<polygon fill="black" stroke="black" points="373.4,-230.19 369.9,-220.19 366.4,-230.19 373.4,-230.19"/>
</g>
<!-- relu_id -->
<g id="node22" class="node">
<title>relu_id</title>
<polygon fill="none" stroke="black" points="407,-130.7 345,-130.7 345,-88.7 407,-88.7 407,-130.7"/>
<text text-anchor="middle" x="376" y="-106.3" font-family="Times,serif" font-size="13.00">ReLU</text>
</g>
<!-- add_id&#45;&gt;relu_id -->
<g id="edge22" class="edge">
<title>add_id&#45;&gt;relu_id</title>
<path fill="none" stroke="black" d="M376,-161.25C376,-161.25 376,-140.88 376,-140.88"/>
<polygon fill="black" stroke="black" points="379.5,-140.88 376,-130.88 372.5,-140.88 379.5,-140.88"/>
</g>
</g>
</svg>
