<?xml version="1.0" encoding="UTF-8" standalone="no"?>
<!DOCTYPE svg PUBLIC "-//W3C//DTD SVG 1.1//EN"
 "http://www.w3.org/Graphics/SVG/1.1/DTD/svg11.dtd">
<!-- Generated by graphviz version 2.43.0 (0)
 -->
<!-- Title: %3 Pages: 1 -->
<svg width="324pt" height="555pt"
 viewBox="0.00 0.00 324.00 555.25" xmlns="http://www.w3.org/2000/svg" xmlns:xlink="http://www.w3.org/1999/xlink">
<g id="graph0" class="graph" transform="scale(0.76 0.76) rotate(0) translate(4 722.62)">
<title>%3</title>
<polygon fill="white" stroke="transparent" points="-4,4 -4,-722.62 420,-722.62 420,4 -4,4"/>
<g id="clust1" class="cluster">
<title>cluster_convblock</title>
<polygon fill="lightpink" stroke="lightpink" points="8,-8 8,-710.62 236,-710.62 236,-8 8,-8"/>
<text text-anchor="middle" x="122" y="-695.42" font-family="Times,serif" font-size="14.00">CONVOLUTION BLOCK</text>
</g>
<g id="clust2" class="cluster">
<title>cluster_idblock</title>
<polygon fill="lightgreen" stroke="lightgreen" points="244,-81.91 244,-710.62 408,-710.62 408,-81.91 244,-81.91"/>
<text text-anchor="middle" x="326" y="-695.42" font-family="Times,serif" font-size="14.00">IDENTITY BLOCK</text>
</g>
<!-- conv_in -->
<g id="node1" class="node">
<title>conv_in</title>
<polygon fill="none" stroke="black" points="103,-679.62 49,-679.62 49,-636.62 103,-636.62 103,-679.62"/>
<text text-anchor="middle" x="76" y="-654.42" font-family="Times,serif" font-size="14.00">INPUT</text>
</g>
<!-- conv2d1 -->
<g id="node2" class="node">
<title>conv2d1</title>
<polygon fill="none" stroke="black" points="106,-614.62 46,-614.62 46,-571.62 106,-571.62 106,-614.62"/>
<text text-anchor="middle" x="76" y="-589.42" font-family="Times,serif" font-size="14.00">Conv2D</text>
</g>
<!-- conv_in&#45;&gt;conv2d1 -->
<g id="edge1" class="edge">
<title>conv_in&#45;&gt;conv2d1</title>
<path fill="none" stroke="black" d="M76,-636.48C76,-636.48 76,-624.89 76,-624.89"/>
<polygon fill="black" stroke="black" points="79.5,-624.89 76,-614.89 72.5,-624.89 79.5,-624.89"/>
</g>
<!-- conv_short -->
<g id="node11" class="node">
<title>conv_short</title>
<polygon fill="none" stroke="black" points="217,-614.62 157,-614.62 157,-571.62 217,-571.62 217,-614.62"/>
<text text-anchor="middle" x="187" y="-589.42" font-family="Times,serif" font-size="14.00">Conv2D</text>
</g>
<!-- conv_in&#45;&gt;conv_short -->
<g id="edge9" class="edge">
<title>conv_in&#45;&gt;conv_short</title>
<path fill="none" stroke="red" stroke-dasharray="5,2" d="M103.15,-658C136.02,-658 187,-658 187,-658 187,-658 187,-624.73 187,-624.73"/>
<polygon fill="red" stroke="red" points="190.5,-624.73 187,-614.73 183.5,-624.73 190.5,-624.73"/>
</g>
<!-- maxpool1 -->
<g id="node3" class="node">
<title>maxpool1</title>
<polygon fill="none" stroke="black" points="116.5,-549.62 35.5,-549.62 35.5,-506.62 116.5,-506.62 116.5,-549.62"/>
<text text-anchor="middle" x="76" y="-524.42" font-family="Times,serif" font-size="14.00">MaxPool2D</text>
</g>
<!-- conv2d1&#45;&gt;maxpool1 -->
<g id="edge2" class="edge">
<title>conv2d1&#45;&gt;maxpool1</title>
<path fill="none" stroke="black" d="M76,-571.48C76,-571.48 76,-559.89 76,-559.89"/>
<polygon fill="black" stroke="black" points="79.5,-559.89 76,-549.89 72.5,-559.89 79.5,-559.89"/>
</g>
<!-- bn_relu1 -->
<g id="node4" class="node">
<title>bn_relu1</title>
<polygon fill="none" stroke="black" points="135.5,-484.62 16.5,-484.62 16.5,-441.62 135.5,-441.62 135.5,-484.62"/>
<text text-anchor="middle" x="76" y="-459.42" font-family="Times,serif" font-size="14.00">BatchNorm, ReLU</text>
</g>
<!-- maxpool1&#45;&gt;bn_relu1 -->
<g id="edge3" class="edge">
<title>maxpool1&#45;&gt;bn_relu1</title>
<path fill="none" stroke="black" d="M76,-506.48C76,-506.48 76,-494.89 76,-494.89"/>
<polygon fill="black" stroke="black" points="79.5,-494.89 76,-484.89 72.5,-494.89 79.5,-494.89"/>
</g>
<!-- conv2d2 -->
<g id="node5" class="node">
<title>conv2d2</title>
<polygon fill="none" stroke="black" points="148,-419.62 16,-419.62 16,-376.62 148,-376.62 148,-419.62"/>
<text text-anchor="middle" x="82" y="-394.42" font-family="Times,serif" font-size="14.00">Conv2D (kernel 3×3)</text>
</g>
<!-- bn_relu1&#45;&gt;conv2d2 -->
<g id="edge4" class="edge">
<title>bn_relu1&#45;&gt;conv2d2</title>
<path fill="none" stroke="black" d="M76,-441.48C76,-441.48 76,-429.89 76,-429.89"/>
<polygon fill="black" stroke="black" points="79.5,-429.89 76,-419.89 72.5,-429.89 79.5,-429.89"/>
</g>
<!-- bn_relu2 -->
<g id="node6" class="node">
<title>bn_relu2</title>
<polygon fill="none" stroke="black" points="141.5,-354.62 22.5,-354.62 22.5,-311.62 141.5,-311.62 141.5,-354.62"/>
<text text-anchor="middle" x="82" y="-329.42" font-family="Times,serif" font-size="14.00">BatchNorm, ReLU</text>
</g>
<!-- conv2d2&#45;&gt;bn_relu2 -->
<g id="edge5" class="edge">
<title>conv2d2&#45;&gt;bn_relu2</title>
<path fill="none" stroke="black" d="M82,-376.48C82,-376.48 82,-364.89 82,-364.89"/>
<polygon fill="black" stroke="black" points="85.5,-364.89 82,-354.89 78.5,-364.89 85.5,-364.89"/>
</g>
<!-- conv2d3 -->
<g id="node7" class="node">
<title>conv2d3</title>
<polygon fill="none" stroke="black" points="112,-289.62 52,-289.62 52,-246.62 112,-246.62 112,-289.62"/>
<text text-anchor="middle" x="82" y="-264.42" font-family="Times,serif" font-size="14.00">Conv2D</text>
</g>
<!-- bn_relu2&#45;&gt;conv2d3 -->
<g id="edge6" class="edge">
<title>bn_relu2&#45;&gt;conv2d3</title>
<path fill="none" stroke="black" d="M82,-311.48C82,-311.48 82,-299.89 82,-299.89"/>
<polygon fill="black" stroke="black" points="85.5,-299.89 82,-289.89 78.5,-299.89 85.5,-299.89"/>
</g>
<!-- bn3 -->
<g id="node8" class="node">
<title>bn3</title>
<polygon fill="none" stroke="black" points="121,-215.72 43,-215.72 43,-172.72 121,-172.72 121,-215.72"/>
<text text-anchor="middle" x="82" y="-190.52" font-family="Times,serif" font-size="14.00">BatchNorm</text>
</g>
<!-- conv2d3&#45;&gt;bn3 -->
<g id="edge7" class="edge">
<title>conv2d3&#45;&gt;bn3</title>
<path fill="none" stroke="black" d="M82,-246.35C82,-246.35 82,-225.84 82,-225.84"/>
<polygon fill="black" stroke="black" points="85.5,-225.84 82,-215.84 78.5,-225.84 85.5,-225.84"/>
</g>
<!-- add_conv -->
<g id="node9" class="node">
<title>add_conv</title>
<ellipse fill="none" stroke="black" cx="129" cy="-111.41" rx="30.31" ry="30.31"/>
<text text-anchor="middle" x="129" y="-107.71" font-family="Times,serif" font-size="14.00">+</text>
</g>
<!-- bn3&#45;&gt;add_conv -->
<g id="edge8" class="edge">
<title>bn3&#45;&gt;add_conv</title>
<path fill="none" stroke="black" d="M109.8,-172.46C109.8,-172.46 109.8,-145.05 109.8,-145.05"/>
<polygon fill="black" stroke="black" points="113.3,-145.05 109.8,-135.05 106.3,-145.05 113.3,-145.05"/>
</g>
<!-- relu_conv -->
<g id="node10" class="node">
<title>relu_conv</title>
<polygon fill="none" stroke="black" points="156,-59 102,-59 102,-16 156,-16 156,-59"/>
<text text-anchor="middle" x="129" y="-33.8" font-family="Times,serif" font-size="14.00">ReLU</text>
</g>
<!-- add_conv&#45;&gt;relu_conv -->
<g id="edge13" class="edge">
<title>add_conv&#45;&gt;relu_conv</title>
<path fill="none" stroke="black" d="M129,-80.92C129,-80.92 129,-69.12 129,-69.12"/>
<polygon fill="black" stroke="black" points="132.5,-69.12 129,-59.12 125.5,-69.12 132.5,-69.12"/>
</g>
<!-- maxpool2 -->
<g id="node12" class="node">
<title>maxpool2</title>
<polygon fill="none" stroke="black" points="227.5,-549.62 146.5,-549.62 146.5,-506.62 227.5,-506.62 227.5,-549.62"/>
<text text-anchor="middle" x="187" y="-524.42" font-family="Times,serif" font-size="14.00">MaxPool2D</text>
</g>
<!-- conv_short&#45;&gt;maxpool2 -->
<g id="edge10" class="edge">
<title>conv_short&#45;&gt;maxpool2</title>
<path fill="none" stroke="red" stroke-dasharray="5,2" d="M187,-571.48C187,-571.48 187,-559.89 187,-559.89"/>
<polygon fill="red" stroke="red" points="190.5,-559.89 187,-549.89 183.5,-559.89 190.5,-559.89"/>
</g>
<!-- bn_short -->
<g id="node13" class="node">
<title>bn_short</title>
<polygon fill="none" stroke="black" points="228,-484.62 150,-484.62 150,-441.62 228,-441.62 228,-484.62"/>
<text text-anchor="middle" x="189" y="-459.42" font-family="Times,serif" font-size="14.00">BatchNorm</text>
</g>
<!-- maxpool2&#45;&gt;bn_short -->
<g id="edge11" class="edge">
<title>maxpool2&#45;&gt;bn_short</title>
<path fill="none" stroke="red" stroke-dasharray="5,2" d="M188.75,-506.48C188.75,-506.48 188.75,-494.89 188.75,-494.89"/>
<polygon fill="red" stroke="red" points="192.25,-494.89 188.75,-484.89 185.25,-494.89 192.25,-494.89"/>
</g>
<!-- bn_short&#45;&gt;add_conv -->
<g id="edge12" class="edge">
<title>bn_short&#45;&gt;add_conv</title>
<path fill="none" stroke="red" stroke-dasharray="5,2" d="M154.7,-441.39C154.7,-441.39 154.7,-137.92 154.7,-137.92"/>
<polygon fill="red" stroke="red" points="158.2,-137.92 154.7,-127.92 151.2,-137.92 158.2,-137.92"/>
</g>
<!-- id_in -->
<g id="node14" class="node">
<title>id_in</title>
<polygon fill="none" stroke="black" points="345,-679.62 291,-679.62 291,-636.62 345,-636.62 345,-679.62"/>
<text text-anchor="middle" x="318" y="-654.42" font-family="Times,serif" font-size="14.00">INPUT</text>
</g>
<!-- id_conv1 -->
<g id="node15" class="node">
<title>id_conv1</title>
<polygon fill="none" stroke="black" points="348,-614.62 288,-614.62 288,-571.62 348,-571.62 348,-614.62"/>
<text text-anchor="middle" x="318" y="-589.42" font-family="Times,serif" font-size="14.00">Conv2D</text>
</g>
<!-- id_in&#45;&gt;id_conv1 -->
<g id="edge14" class="edge">
<title>id_in&#45;&gt;id_conv1</title>
<path fill="none" stroke="black" d="M318,-636.48C318,-636.48 318,-624.89 318,-624.89"/>
<polygon fill="black" stroke="black" points="321.5,-624.89 318,-614.89 314.5,-624.89 321.5,-624.89"/>
</g>
<!-- add_id -->
<g id="node21" class="node">
<title>add_id</title>
<ellipse fill="none" stroke="black" cx="344" cy="-194.22" rx="30.31" ry="30.31"/>
<text text-anchor="middle" x="344" y="-190.52" font-family="Times,serif" font-size="14.00">+</text>
</g>
<!-- id_in&#45;&gt;add_id -->
<g id="edge21" class="edge">
<title>id_in&#45;&gt;add_id</title>
<path fill="none" stroke="red" stroke-dasharray="5,2" d="M345.04,-658C369.6,-658 402,-658 402,-658 402,-658 402,-194 402,-194 402,-194 384.7,-194 384.7,-194"/>
<polygon fill="red" stroke="red" points="384.7,-190.5 374.7,-194 384.7,-197.5 384.7,-190.5"/>
</g>
<!-- id_bn_relu1 -->
<g id="node16" class="node">
<title>id_bn_relu1</title>
<polygon fill="none" stroke="black" points="377.5,-549.62 258.5,-549.62 258.5,-506.62 377.5,-506.62 377.5,-549.62"/>
<text text-anchor="middle" x="318" y="-524.42" font-family="Times,serif" font-size="14.00">BatchNorm, ReLU</text>
</g>
<!-- id_conv1&#45;&gt;id_bn_relu1 -->
<g id="edge15" class="edge">
<title>id_conv1&#45;&gt;id_bn_relu1</title>
<path fill="none" stroke="black" d="M318,-571.48C318,-571.48 318,-559.89 318,-559.89"/>
<polygon fill="black" stroke="black" points="321.5,-559.89 318,-549.89 314.5,-559.89 321.5,-559.89"/>
</g>
<!-- id_conv2 -->
<g id="node17" class="node">
<title>id_conv2</title>
<polygon fill="none" stroke="black" points="384,-484.62 252,-484.62 252,-441.62 384,-441.62 384,-484.62"/>
<text text-anchor="middle" x="318" y="-459.42" font-family="Times,serif" font-size="14.00">Conv2D (kernel 3×3)</text>
</g>
<!-- id_bn_relu1&#45;&gt;id_conv2 -->
<g id="edge16" class="edge">
<title>id_bn_relu1&#45;&gt;id_conv2</title>
<path fill="none" stroke="black" d="M318,-506.48C318,-506.48 318,-494.89 318,-494.89"/>
<polygon fill="black" stroke="black" points="321.5,-494.89 318,-484.89 314.5,-494.89 321.5,-494.89"/>
</g>
<!-- id_bn_relu2 -->
<g id="node18" class="node">
<title>id_bn_relu2</title>
<polygon fill="none" stroke="black" points="377.5,-419.62 258.5,-419.62 258.5,-376.62 377.5,-376.62 377.5,-419.62"/>
<text text-anchor="middle" x="318" y="-394.42" font-family="Times,serif" font-size="14.00">BatchNorm, ReLU</text>
</g>
<!-- id_conv2&#45;&gt;id_bn_relu2 -->
<g id="edge17" class="edge">
<title>id_conv2&#45;&gt;id_bn_relu2</title>
<path fill="none" stroke="black" d="M318,-441.48C318,-441.48 318,-429.89 318,-429.89"/>
<polygon fill="black" stroke="black" points="321.5,-429.89 318,-419.89 314.5,-429.89 321.5,-429.89"/>
</g>
<!-- id_conv3 -->
<g id="node19" class="node">
<title>id_conv3</title>
<polygon fill="none" stroke="black" points="348,-354.62 288,-354.62 288,-311.62 348,-311.62 348,-354.62"/>
<text text-anchor="middle" x="318" y="-329.42" font-family="Times,serif" font-size="14.00">Conv2D</text>
</g>
<!-- id_bn_relu2&#45;&gt;id_conv3 -->
<g id="edge18" class="edge">
<title>id_bn_relu2&#45;&gt;id_conv3</title>
<path fill="none" stroke="black" d="M318,-376.48C318,-376.48 318,-364.89 318,-364.89"/>
<polygon fill="black" stroke="black" points="321.5,-364.89 318,-354.89 314.5,-364.89 321.5,-364.89"/>
</g>
<!-- id_bn3 -->
<g id="node20" class="node">
<title>id_bn3</title>
<polygon fill="none" stroke="black" points="357,-289.62 279,-289.62 279,-246.62 357,-246.62 357,-289.62"/>
<text text-anchor="middle" x="318" y="-264.42" font-family="Times,serif" font-size="14.00">BatchNorm</text>
</g>
<!-- id_conv3&#45;&gt;id_bn3 -->
<g id="edge19" class="edge">
<title>id_conv3&#45;&gt;id_bn3</title>
<path fill="none" stroke="black" d="M318,-311.48C318,-311.48 318,-299.89 318,-299.89"/>
<polygon fill="black" stroke="black" points="321.5,-299.89 318,-289.89 314.5,-299.89 321.5,-299.89"/>
</g>
<!-- id_bn3&#45;&gt;add_id -->
<g id="edge20" class="edge">
<title>id_bn3&#45;&gt;add_id</title>
<path fill="none" stroke="black" d="M335.3,-246.35C335.3,-246.35 335.3,-233.51 335.3,-233.51"/>
<polygon fill="black" stroke="black" points="338.8,-233.51 335.3,-223.51 331.8,-233.51 338.8,-233.51"/>
</g>
<!-- relu_id -->
<g id="node22" class="node">
<title>relu_id</title>
<polygon fill="none" stroke="black" points="371,-132.91 317,-132.91 317,-89.91 371,-89.91 371,-132.91"/>
<text text-anchor="middle" x="344" y="-107.71" font-family="Times,serif" font-size="14.00">ReLU</text>
</g>
<!-- add_id&#45;&gt;relu_id -->
<g id="edge22" class="edge">
<title>add_id&#45;&gt;relu_id</title>
<path fill="none" stroke="black" d="M344,-163.38C344,-163.38 344,-142.97 344,-142.97"/>
<polygon fill="black" stroke="black" points="347.5,-142.97 344,-132.97 340.5,-142.97 347.5,-142.97"/>
</g>
</g>
</svg>
